Muli-ExtraLight.ufo
<glyph name="percent" format="2">
  <advance width="926"/>
  <unicode hex="0025"/>
  <outline>
    <contour>
      <point x="273" y="0" type="line"/>
      <point x="695" y="705" type="line"/>
      <point x="653" y="705" type="line"/>
      <point x="231" y="0" type="line"/>
    </contour>
    <contour>
      <point x="228" y="281" type="curve" smooth="yes"/>
      <point x="332" y="281"/>
      <point x="396" y="359"/>
      <point x="396" y="497" type="curve" smooth="yes"/>
      <point x="396" y="634"/>
      <point x="332" y="712"/>
      <point x="228" y="712" type="curve" smooth="yes"/>
      <point x="125" y="712"/>
      <point x="60" y="634"/>
      <point x="60" y="497" type="curve" smooth="yes"/>
      <point x="60" y="359"/>
      <point x="124" y="281"/>
    </contour>
    <contour>
      <point x="228" y="318" type="curve" smooth="yes"/>
      <point x="150" y="318"/>
      <point x="103" y="380"/>
      <point x="103" y="497" type="curve" smooth="yes"/>
      <point x="103" y="613"/>
      <point x="150" y="675"/>
      <point x="228" y="675" type="curve" smooth="yes"/>
      <point x="306" y="675"/>
      <point x="354" y="613"/>
      <point x="354" y="497" type="curve" smooth="yes"/>
      <point x="354" y="380"/>
      <point x="306" y="318"/>
    </contour>
    <contour>
      <point x="698" y="-8" type="curve" smooth="yes"/>
      <point x="802" y="-8"/>
      <point x="866" y="70"/>
      <point x="866" y="208" type="curve" smooth="yes"/>
      <point x="866" y="345"/>
      <point x="802" y="423"/>
      <point x="698" y="423" type="curve" smooth="yes"/>
      <point x="595" y="423"/>
      <point x="530" y="345"/>
      <point x="530" y="208" type="curve" smooth="yes"/>
      <point x="530" y="69"/>
      <point x="594" y="-8"/>
    </contour>
    <contour>
      <point x="698" y="29" type="curve" smooth="yes"/>
      <point x="620" y="29"/>
      <point x="573" y="91"/>
      <point x="573" y="208" type="curve" smooth="yes"/>
      <point x="573" y="324"/>
      <point x="620" y="386"/>
      <point x="698" y="386" type="curve" smooth="yes"/>
      <point x="776" y="386"/>
      <point x="824" y="324"/>
      <point x="824" y="208" type="curve" smooth="yes"/>
      <point x="824" y="91"/>
      <point x="776" y="29"/>
    </contour>
  </outline>
</glyph>
<glyph name="zero" format="2">
  <advance width="600"/>
  <unicode hex="0030"/>
  <outline>
    <contour>
      <point x="300" y="-8" type="curve" smooth="yes"/>
      <point x="454" y="-8"/>
      <point x="540" y="117"/>
      <point x="540" y="353" type="curve" smooth="yes"/>
      <point x="540" y="589"/>
      <point x="456" y="713"/>
      <point x="300" y="713" type="curve" smooth="yes"/>
      <point x="145" y="713"/>
      <point x="60" y="589"/>
      <point x="60" y="352" type="curve" smooth="yes"/>
      <point x="60" y="117"/>
      <point x="145" y="-8"/>
    </contour>
    <contour>
      <point x="300" y="33" type="curve" smooth="yes"/>
      <point x="170" y="33"/>
      <point x="105" y="136"/>
      <point x="105" y="353" type="curve" smooth="yes"/>
      <point x="105" y="569"/>
      <point x="170" y="672"/>
      <point x="300" y="672" type="curve" smooth="yes"/>
      <point x="431" y="672"/>
      <point x="495" y="571"/>
      <point x="495" y="353" type="curve" smooth="yes"/>
      <point x="495" y="136"/>
      <point x="430" y="33"/>
    </contour>
  </outline>
</glyph>
<glyph name="two" format="2">
  <advance width="600"/>
  <unicode hex="0032"/>
  <outline>
    <contour>
      <point x="94" y="0" type="line"/>
      <point x="541" y="0" type="line"/>
      <point x="541" y="39" type="line"/>
      <point x="138" y="39" type="line"/>
      <point x="138" y="25" type="line"/>
      <point x="382" y="276" type="line" smooth="yes"/>
      <point x="462" y="359"/>
      <point x="510" y="439"/>
      <point x="510" y="529" type="curve" smooth="yes"/>
      <point x="510" y="646"/>
      <point x="433" y="713"/>
      <point x="298" y="713" type="curve" smooth="yes"/>
      <point x="207" y="713"/>
      <point x="121" y="675"/>
      <point x="71" y="619" type="curve"/>
      <point x="91" y="583" type="line"/>
      <point x="150" y="643"/>
      <point x="215" y="672"/>
      <point x="298" y="672" type="curve" smooth="yes"/>
      <point x="407" y="672"/>
      <point x="466" y="622"/>
      <point x="466" y="528" type="curve" smooth="yes"/>
      <point x="466" y="450"/>
      <point x="428" y="382"/>
      <point x="358" y="309" type="curve" smooth="yes"/>
      <point x="94" y="32" type="line"/>
    </contour>
  </outline>
</glyph>
<glyph name="four" format="2">
  <advance width="600"/>
  <unicode hex="0034"/>
  <outline>
    <contour>
      <point x="413" y="0" type="line"/>
      <point x="455" y="0" type="line"/>
      <point x="455" y="166" type="line"/>
      <point x="570" y="166" type="line"/>
      <point x="570" y="205" type="line"/>
      <point x="455" y="205" type="line"/>
      <point x="455" y="705" type="line"/>
      <point x="420" y="705" type="line"/>
      <point x="58" y="199" type="line"/>
      <point x="58" y="166" type="line"/>
      <point x="413" y="166" type="line"/>
    </contour>
    <contour>
      <point x="413" y="205" type="line"/>
      <point x="102" y="205" type="line"/>
      <point x="102" y="193" type="line"/>
      <point x="433" y="655" type="line"/>
      <point x="413" y="655" type="line"/>
    </contour>
  </outline>
</glyph>
<glyph name="five" format="2">
  <advance width="600"/>
  <unicode hex="0035"/>
  <outline>
    <contour>
      <point x="321" y="-8" type="curve" smooth="yes"/>
      <point x="462" y="-8"/>
      <point x="550" y="83"/>
      <point x="550" y="213" type="curve" smooth="yes"/>
      <point x="550" y="346"/>
      <point x="466" y="435"/>
      <point x="331" y="435" type="curve" smooth="yes"/>
      <point x="245" y="435"/>
      <point x="174" y="398"/>
      <point x="137" y="336" type="curve"/>
      <point x="151" y="336" type="line"/>
      <point x="151" y="666" type="line"/>
      <point x="508" y="666" type="line"/>
      <point x="508" y="705" type="line"/>
      <point x="108" y="705" type="line"/>
      <point x="108" y="294" type="line"/>
      <point x="146" y="294" type="line"/>
      <point x="189" y="363"/>
      <point x="249" y="394"/>
      <point x="328" y="394" type="curve" smooth="yes"/>
      <point x="440" y="394"/>
      <point x="506" y="317"/>
      <point x="506" y="209" type="curve" smooth="yes"/>
      <point x="506" y="103"/>
      <point x="435" y="33"/>
      <point x="321" y="33" type="curve" smooth="yes"/>
      <point x="239" y="33"/>
      <point x="172" y="58"/>
      <point x="104" y="116" type="curve"/>
      <point x="83" y="80" type="line"/>
      <point x="143" y="23"/>
      <point x="229" y="-8"/>
    </contour>
  </outline>
</glyph>
<glyph name="six" format="2">
  <advance width="600"/>
  <unicode hex="0036"/>
  <outline>
    <contour>
      <point x="321" y="-8" type="curve" smooth="yes"/>
      <point x="451" y="-8"/>
      <point x="544" y="85"/>
      <point x="544" y="214" type="curve" smooth="yes"/>
      <point x="544" y="343"/>
      <point x="453" y="434"/>
      <point x="321" y="434" type="curve" smooth="yes"/>
      <point x="201" y="434"/>
      <point x="111" y="355"/>
      <point x="101" y="230" type="curve"/>
      <point x="107" y="230" type="line"/>
      <point x="107" y="340" type="line" smooth="yes"/>
      <point x="107" y="560"/>
      <point x="192" y="672"/>
      <point x="341" y="672" type="curve" smooth="yes"/>
      <point x="406" y="672"/>
      <point x="470" y="644"/>
      <point x="521" y="587" type="curve"/>
      <point x="541" y="623" type="line"/>
      <point x="497" y="677"/>
      <point x="414" y="713"/>
      <point x="342" y="713" type="curve" smooth="yes"/>
      <point x="167" y="713"/>
      <point x="64" y="578"/>
      <point x="64" y="331" type="curve" smooth="yes"/>
      <point x="64" y="117"/>
      <point x="156" y="-8"/>
    </contour>
    <contour>
      <point x="317" y="33" type="curve" smooth="yes"/>
      <point x="209" y="33"/>
      <point x="134" y="107"/>
      <point x="134" y="213" type="curve" smooth="yes"/>
      <point x="134" y="319"/>
      <point x="209" y="393"/>
      <point x="317" y="393" type="curve" smooth="yes"/>
      <point x="425" y="393"/>
      <point x="500" y="319"/>
      <point x="500" y="213" type="curve" smooth="yes"/>
      <point x="500" y="107"/>
      <point x="425" y="33"/>
    </contour>
  </outline>
</glyph>
<glyph name="eight" format="2">
  <advance width="600"/>
  <unicode hex="0038"/>
  <outline>
    <contour>
      <point x="300" y="-8" type="curve" smooth="yes"/>
      <point x="459" y="-8"/>
      <point x="545" y="62"/>
      <point x="545" y="184" type="curve" smooth="yes"/>
      <point x="545" y="281"/>
      <point x="485" y="350"/>
      <point x="385" y="363" type="curve"/>
      <point x="385" y="354" type="line"/>
      <point x="477" y="373"/>
      <point x="529" y="442"/>
      <point x="529" y="527" type="curve" smooth="yes"/>
      <point x="529" y="644"/>
      <point x="443" y="713"/>
      <point x="300" y="713" type="curve" smooth="yes"/>
      <point x="158" y="713"/>
      <point x="72" y="644"/>
      <point x="72" y="527" type="curve" smooth="yes"/>
      <point x="72" y="441"/>
      <point x="129" y="373"/>
      <point x="221" y="354" type="curve"/>
      <point x="221" y="363" type="line"/>
      <point x="121" y="350"/>
      <point x="55" y="281"/>
      <point x="55" y="184" type="curve" smooth="yes"/>
      <point x="55" y="62"/>
      <point x="142" y="-8"/>
    </contour>
    <contour>
      <point x="300" y="32" type="curve" smooth="yes"/>
      <point x="165" y="32"/>
      <point x="99" y="82"/>
      <point x="99" y="185" type="curve" smooth="yes"/>
      <point x="99" y="288"/>
      <point x="164" y="337"/>
      <point x="300" y="337" type="curve" smooth="yes"/>
      <point x="436" y="337"/>
      <point x="501" y="288"/>
      <point x="501" y="185" type="curve" smooth="yes"/>
      <point x="501" y="82"/>
      <point x="436" y="32"/>
    </contour>
    <contour>
      <point x="300" y="377" type="curve" smooth="yes"/>
      <point x="181" y="377"/>
      <point x="116" y="433"/>
      <point x="116" y="526" type="curve" smooth="yes"/>
      <point x="116" y="619"/>
      <point x="181" y="673"/>
      <point x="300" y="673" type="curve" smooth="yes"/>
      <point x="419" y="673"/>
      <point x="484" y="619"/>
      <point x="484" y="526" type="curve" smooth="yes"/>
      <point x="484" y="433"/>
      <point x="419" y="377"/>
    </contour>
  </outline>
</glyph>
<glyph name="nine" format="2">
  <advance width="600"/>
  <unicode hex="0039"/>
  <outline>
    <contour>
      <point x="259" y="-8" type="curve" smooth="yes"/>
      <point x="433" y="-8"/>
      <point x="537" y="127"/>
      <point x="537" y="374" type="curve" smooth="yes"/>
      <point x="537" y="588"/>
      <point x="445" y="713"/>
      <point x="279" y="713" type="curve" smooth="yes"/>
      <point x="149" y="713"/>
      <point x="56" y="620"/>
      <point x="56" y="491" type="curve" smooth="yes"/>
      <point x="56" y="362"/>
      <point x="147" y="271"/>
      <point x="280" y="271" type="curve" smooth="yes"/>
      <point x="399" y="271"/>
      <point x="489" y="350"/>
      <point x="500" y="475" type="curve"/>
      <point x="493" y="475" type="line"/>
      <point x="493" y="365" type="line" smooth="yes"/>
      <point x="493" y="145"/>
      <point x="408" y="33"/>
      <point x="260" y="33" type="curve" smooth="yes"/>
      <point x="195" y="33"/>
      <point x="130" y="61"/>
      <point x="80" y="118" type="curve"/>
      <point x="59" y="82" type="line"/>
      <point x="104" y="28"/>
      <point x="187" y="-8"/>
    </contour>
    <contour>
      <point x="284" y="312" type="curve" smooth="yes"/>
      <point x="175" y="312"/>
      <point x="101" y="386"/>
      <point x="101" y="492" type="curve" smooth="yes"/>
      <point x="101" y="598"/>
      <point x="175" y="672"/>
      <point x="284" y="672" type="curve" smooth="yes"/>
      <point x="392" y="672"/>
      <point x="467" y="598"/>
      <point x="467" y="492" type="curve" smooth="yes"/>
      <point x="467" y="386"/>
      <point x="392" y="312"/>
    </contour>
  </outline>
</glyph>
<glyph name="question" format="2">
  <advance width="433"/>
  <unicode hex="003F"/>
  <outline>
    <contour>
      <point x="173" y="162" type="line"/>
      <point x="203" y="162" type="line"/>
      <point x="205" y="184" type="line" smooth="yes"/>
      <point x="211" y="245"/>
      <point x="235" y="295"/>
      <point x="301" y="371" type="curve" smooth="yes"/>
      <point x="371" y="451"/>
      <point x="395" y="498"/>
      <point x="395" y="562" type="curve" smooth="yes"/>
      <point x="395" y="653"/>
      <point x="323" y="713"/>
      <point x="214" y="713" type="curve" smooth="yes"/>
      <point x="165" y="713"/>
      <point x="117" y="702"/>
      <point x="76" y="683" type="curve"/>
      <point x="76" y="637" type="line"/>
      <point x="118" y="660"/>
      <point x="163" y="672"/>
      <point x="215" y="672" type="curve" smooth="yes"/>
      <point x="299" y="672"/>
      <point x="351" y="631"/>
      <point x="351" y="562" type="curve" smooth="yes"/>
      <point x="351" y="508"/>
      <point x="330" y="464"/>
      <point x="270" y="396" type="curve" smooth="yes"/>
      <point x="196" y="312"/>
      <point x="173" y="253"/>
      <point x="173" y="182" type="curve" smooth="yes"/>
    </contour>
    <contour>
      <point x="153" y="0" type="line"/>
      <point x="222" y="0" type="line"/>
      <point x="222" y="70" type="line"/>
      <point x="153" y="70" type="line"/>
    </contour>
  </outline>
</glyph>
<glyph name="B" format="2">
  <advance width="672"/>
  <unicode hex="0042"/>
  <anchor x="341" y="0" name="bottom"/>
  <anchor x="340" y="705" name="top"/>
  <outline>
    <contour>
      <point x="97" y="0" type="line"/>
      <point x="368" y="0" type="line" smooth="yes"/>
      <point x="518" y="0"/>
      <point x="601" y="65"/>
      <point x="601" y="191" type="curve" smooth="yes"/>
      <point x="601" y="293"/>
      <point x="536" y="355"/>
      <point x="431" y="365" type="curve"/>
      <point x="431" y="351" type="line"/>
      <point x="526" y="370"/>
      <point x="585" y="430"/>
      <point x="585" y="521" type="curve" smooth="yes"/>
      <point x="585" y="639"/>
      <point x="502" y="705"/>
      <point x="354" y="705" type="curve" smooth="yes"/>
      <point x="97" y="705" type="line"/>
    </contour>
    <contour>
      <point x="139" y="39" type="line"/>
      <point x="139" y="337" type="line"/>
      <point x="367" y="337" type="line" smooth="yes"/>
      <point x="482" y="337"/>
      <point x="557" y="297"/>
      <point x="557" y="188" type="curve" smooth="yes"/>
      <point x="557" y="80"/>
      <point x="482" y="39"/>
      <point x="367" y="39" type="curve" smooth="yes"/>
    </contour>
    <contour>
      <point x="139" y="376" type="line"/>
      <point x="139" y="666" type="line"/>
      <point x="352" y="666" type="line" smooth="yes"/>
      <point x="476" y="666"/>
      <point x="541" y="615"/>
      <point x="541" y="521" type="curve" smooth="yes"/>
      <point x="541" y="427"/>
      <point x="476" y="376"/>
      <point x="352" y="376" type="curve" smooth="yes"/>
    </contour>
  </outline>
</glyph>
<glyph name="E" format="2">
  <advance width="582"/>
  <unicode hex="0045"/>
  <anchor x="323" y="0" name="bottom"/>
  <anchor x="499" y="0" name="ogonek"/>
  <anchor x="323" y="705" name="top"/>
  <anchor x="25" y="705" name="topleft"/>
  <outline>
    <contour>
      <point x="97" y="0" type="line"/>
      <point x="525" y="0" type="line"/>
      <point x="525" y="39" type="line"/>
      <point x="139" y="39" type="line"/>
      <point x="139" y="338" type="line"/>
      <point x="503" y="338" type="line"/>
      <point x="503" y="377" type="line"/>
      <point x="139" y="377" type="line"/>
      <point x="139" y="666" type="line"/>
      <point x="525" y="666" type="line"/>
      <point x="525" y="705" type="line"/>
      <point x="97" y="705" type="line"/>
    </contour>
  </outline>
</glyph>
<glyph name="I" format="2">
  <advance width="236"/>
  <unicode hex="0049"/>
  <anchor x="118" y="0" name="bottom"/>
  <anchor x="139" y="0" name="ogonek"/>
  <anchor x="118" y="705" name="top"/>
  <anchor x="26" y="705" name="topleft"/>
  <outline>
    <contour>
      <point x="97" y="0" type="line"/>
      <point x="139" y="0" type="line"/>
      <point x="139" y="705" type="line"/>
      <point x="97" y="705" type="line"/>
    </contour>
  </outline>
</glyph>
<glyph name="L" format="2">
  <advance width="532"/>
  <unicode hex="004C"/>
  <anchor x="303" y="0" name="bottom"/>
  <anchor x="164" y="387" name="center"/>
  <anchor x="384" y="386" name="dot"/>
  <anchor x="118" y="705" name="top"/>
  <anchor x="256" y="705" name="topright"/>
  <outline>
    <contour>
      <point x="97" y="0" type="line"/>
      <point x="517" y="0" type="line"/>
      <point x="517" y="39" type="line"/>
      <point x="139" y="39" type="line"/>
      <point x="139" y="705" type="line"/>
      <point x="97" y="705" type="line"/>
    </contour>
  </outline>
</glyph>
<glyph name="O" format="2">
  <advance width="759"/>
  <unicode hex="004F"/>
  <anchor x="379" y="-8" name="Qtail"/>
  <anchor x="379" y="0" name="bottom"/>
  <anchor x="380" y="353" name="center"/>
  <anchor x="436" y="0" name="ogonek"/>
  <anchor x="379" y="705" name="top"/>
  <anchor x="25" y="705" name="topleft"/>
  <anchor x="454" y="705" name="topright"/>
  <outline>
    <contour>
      <point x="379" y="-8" type="curve" smooth="yes"/>
      <point x="569" y="-8"/>
      <point x="691" y="130"/>
      <point x="691" y="354" type="curve" smooth="yes"/>
      <point x="691" y="576"/>
      <point x="570" y="713"/>
      <point x="379" y="713" type="curve" smooth="yes"/>
      <point x="181" y="713"/>
      <point x="68" y="576"/>
      <point x="68" y="353" type="curve" smooth="yes"/>
      <point x="68" y="130"/>
      <point x="183" y="-8"/>
    </contour>
    <contour>
      <point x="379" y="33" type="curve" smooth="yes"/>
      <point x="206" y="33"/>
      <point x="113" y="151"/>
      <point x="113" y="353" type="curve" smooth="yes"/>
      <point x="113" y="555"/>
      <point x="206" y="672"/>
      <point x="379" y="672" type="curve" smooth="yes"/>
      <point x="547" y="672"/>
      <point x="646" y="556"/>
      <point x="646" y="353" type="curve" smooth="yes"/>
      <point x="646" y="150"/>
      <point x="546" y="33"/>
    </contour>
  </outline>
</glyph>
<glyph name="P" format="2">
  <advance width="638"/>
  <unicode hex="0050"/>
  <anchor x="314" y="0" name="bottom"/>
  <anchor x="314" y="705" name="top"/>
  <outline>
    <contour>
      <point x="97" y="0" type="line"/>
      <point x="139" y="0" type="line"/>
      <point x="139" y="317" type="line"/>
      <point x="360" y="317" type="line" smooth="yes"/>
      <point x="502" y="317"/>
      <point x="585" y="389"/>
      <point x="585" y="511" type="curve" smooth="yes"/>
      <point x="585" y="633"/>
      <point x="502" y="705"/>
      <point x="360" y="705" type="curve" smooth="yes"/>
      <point x="97" y="705" type="line"/>
    </contour>
    <contour>
      <point x="139" y="356" type="line"/>
      <point x="139" y="666" type="line"/>
      <point x="359" y="666" type="line" smooth="yes"/>
      <point x="477" y="666"/>
      <point x="540" y="610"/>
      <point x="540" y="511" type="curve" smooth="yes"/>
      <point x="540" y="412"/>
      <point x="477" y="356"/>
      <point x="359" y="356" type="curve" smooth="yes"/>
    </contour>
  </outline>
</glyph>
<glyph name="R" format="2">
  <advance width="684"/>
  <unicode hex="0052"/>
  <anchor x="338" y="0" name="bottom"/>
  <anchor x="338" y="705" name="top"/>
  <outline>
    <contour>
      <point x="97" y="0" type="line"/>
      <point x="139" y="0" type="line"/>
      <point x="139" y="322" type="line"/>
      <point x="340" y="322" type="line" smooth="yes"/>
      <point x="421" y="322"/>
      <point x="471" y="309"/>
      <point x="498" y="236" type="curve" smooth="yes"/>
      <point x="586" y="0" type="line"/>
      <point x="633" y="0" type="line"/>
      <point x="536" y="252" type="line" smooth="yes"/>
      <point x="511" y="316"/>
      <point x="467" y="337"/>
      <point x="414" y="337" type="curve" smooth="yes"/>
      <point x="406" y="337" type="line"/>
      <point x="385" y="329" type="line"/>
      <point x="504" y="329"/>
      <point x="592" y="395"/>
      <point x="592" y="514" type="curve" smooth="yes"/>
      <point x="592" y="635"/>
      <point x="509" y="705"/>
      <point x="367" y="705" type="curve" smooth="yes"/>
      <point x="97" y="705" type="line"/>
    </contour>
    <contour>
      <point x="139" y="361" type="line"/>
      <point x="139" y="666" type="line"/>
      <point x="363" y="666" type="line" smooth="yes"/>
      <point x="483" y="666"/>
      <point x="547" y="612"/>
      <point x="547" y="514" type="curve" smooth="yes"/>
      <point x="547" y="415"/>
      <point x="483" y="361"/>
      <point x="363" y="361" type="curve" smooth="yes"/>
    </contour>
  </outline>
</glyph>
<glyph name="U" format="2">
  <advance width="722"/>
  <unicode hex="0055"/>
  <anchor x="361" y="0" name="bottom"/>
  <anchor x="429" y="0" name="ogonek"/>
  <anchor x="361" y="705" name="top"/>
  <anchor x="596" y="705" name="topright"/>
  <outline>
    <contour>
      <point x="361" y="-8" type="curve" smooth="yes"/>
      <point x="535" y="-8"/>
      <point x="630" y="89"/>
      <point x="630" y="270" type="curve" smooth="yes"/>
      <point x="630" y="705" type="line"/>
      <point x="588" y="705" type="line"/>
      <point x="588" y="276" type="line" smooth="yes"/>
      <point x="588" y="113"/>
      <point x="509" y="33"/>
      <point x="361" y="33" type="curve" smooth="yes"/>
      <point x="204" y="33"/>
      <point x="134" y="113"/>
      <point x="134" y="276" type="curve" smooth="yes"/>
      <point x="134" y="705" type="line"/>
      <point x="92" y="705" type="line"/>
      <point x="92" y="270" type="line" smooth="yes"/>
      <point x="92" y="89"/>
      <point x="178" y="-8"/>
    </contour>
  </outline>
</glyph>
<glyph name="W" format="2">
  <advance width="1104"/>
  <unicode hex="0057"/>
  <anchor x="552" y="0" name="bottom"/>
  <anchor x="552" y="705" name="top"/>
  <outline>
    <contour>
      <point x="285" y="0" type="line"/>
      <point x="327" y="0" type="line"/>
      <point x="565" y="672" type="line"/>
      <point x="545" y="672" type="line"/>
      <point x="772" y="0" type="line"/>
      <point x="816" y="0" type="line"/>
      <point x="1062" y="705" type="line"/>
      <point x="1019" y="705" type="line"/>
      <point x="780" y="19" type="line"/>
      <point x="807" y="19" type="line"/>
      <point x="574" y="705" type="line"/>
      <point x="535" y="705" type="line"/>
      <point x="292" y="19" type="line"/>
      <point x="322" y="19" type="line"/>
      <point x="87" y="705" type="line"/>
      <point x="42" y="705" type="line"/>
    </contour>
  </outline>
</glyph>
<glyph name="X" format="2">
  <advance width="636"/>
  <unicode hex="0058"/>
  <anchor x="318" y="0" name="bottom"/>
  <anchor x="318" y="705" name="top"/>
  <outline>
    <contour>
      <point x="24" y="0" type="line"/>
      <point x="75" y="0" type="line"/>
      <point x="329" y="342" type="line"/>
      <point x="308" y="342" type="line"/>
      <point x="561" y="0" type="line"/>
      <point x="612" y="0" type="line"/>
      <point x="339" y="367" type="line"/>
      <point x="339" y="357" type="line"/>
      <point x="597" y="705" type="line"/>
      <point x="546" y="705" type="line"/>
      <point x="314" y="387" type="line"/>
      <point x="326" y="387" type="line"/>
      <point x="90" y="705" type="line"/>
      <point x="39" y="705" type="line"/>
      <point x="298" y="357" type="line"/>
      <point x="298" y="367" type="line"/>
    </contour>
  </outline>
</glyph>
<glyph name="Y" format="2">
  <advance width="587"/>
  <unicode hex="0059"/>
  <anchor x="294" y="0" name="bottom"/>
  <anchor x="294" y="705" name="top"/>
  <anchor x="19" y="705" name="topleft"/>
  <outline>
    <contour>
      <point x="272" y="0" type="line"/>
      <point x="314" y="0" type="line"/>
      <point x="314" y="326" type="line"/>
      <point x="304" y="288" type="line"/>
      <point x="586" y="705" type="line"/>
      <point x="539" y="705" type="line"/>
      <point x="287" y="327" type="line"/>
      <point x="302" y="327" type="line"/>
      <point x="50" y="705" type="line"/>
      <point x="1" y="705" type="line"/>
      <point x="283" y="288" type="line"/>
      <point x="272" y="326" type="line"/>
    </contour>
  </outline>
</glyph>
<glyph name="backslash" format="2">
  <advance width="259"/>
  <unicode hex="005C"/>
  <outline>
    <contour>
      <point x="239" y="-52" type="line"/>
      <point x="280" y="-52" type="line"/>
      <point x="20" y="744" type="line"/>
      <point x="-21" y="744" type="line"/>
    </contour>
  </outline>
</glyph>
<glyph name="asciicircum" format="2">
  <advance width="600"/>
  <unicode hex="005E"/>
  <outline>
    <contour>
      <point x="47" y="142" type="line"/>
      <point x="89" y="142" type="line"/>
      <point x="310" y="599" type="line"/>
      <point x="288" y="599" type="line"/>
      <point x="510" y="142" type="line"/>
      <point x="553" y="142" type="line"/>
      <point x="317" y="628" type="line"/>
      <point x="281" y="628" type="line"/>
    </contour>
  </outline>
</glyph>
<glyph name="a" format="2">
  <advance width="583"/>
  <unicode hex="0061"/>
  <anchor x="285" y="0" name="bottom"/>
  <anchor x="275" y="253" name="center"/>
  <anchor x="495" y="0" name="ogonek"/>
  <anchor x="285" y="484" name="top"/>
  <outline>
    <contour>
      <point x="276" y="-8" type="curve" smooth="yes"/>
      <point x="369" y="-8"/>
      <point x="442" y="44"/>
      <point x="464" y="131" type="curve"/>
      <point x="453" y="131" type="line"/>
      <point x="453" y="0" type="line"/>
      <point x="495" y="0" type="line"/>
      <point x="495" y="392" type="line" smooth="yes"/>
      <point x="495" y="426"/>
      <point x="499" y="463"/>
      <point x="503" y="500" type="curve"/>
      <point x="462" y="500" type="line"/>
      <point x="452" y="369" type="line"/>
      <point x="464" y="369" type="line"/>
      <point x="442" y="456"/>
      <point x="370" y="508"/>
      <point x="276" y="508" type="curve" smooth="yes"/>
      <point x="141" y="508"/>
      <point x="54" y="411"/>
      <point x="54" y="250" type="curve" smooth="yes"/>
      <point x="54" y="89"/>
      <point x="140" y="-8"/>
    </contour>
    <contour>
      <point x="276" y="31" type="curve" smooth="yes"/>
      <point x="167" y="31"/>
      <point x="97" y="109"/>
      <point x="97" y="250" type="curve" smooth="yes"/>
      <point x="97" y="391"/>
      <point x="167" y="469"/>
      <point x="276" y="469" type="curve" smooth="yes"/>
      <point x="385" y="469"/>
      <point x="454" y="391"/>
      <point x="454" y="250" type="curve" smooth="yes"/>
      <point x="454" y="109"/>
      <point x="385" y="31"/>
    </contour>
  </outline>
</glyph>
<glyph name="c" format="2">
  <advance width="487"/>
  <unicode hex="0063"/>
  <anchor x="281" y="0" name="bottom"/>
  <anchor x="281" y="484" name="top"/>
  <outline>
    <contour>
      <point x="281" y="-8" type="curve" smooth="yes"/>
      <point x="340" y="-8"/>
      <point x="404" y="17"/>
      <point x="444" y="62" type="curve"/>
      <point x="423" y="94" type="line"/>
      <point x="379" y="49"/>
      <point x="327" y="31"/>
      <point x="280" y="31" type="curve" smooth="yes"/>
      <point x="165" y="31"/>
      <point x="97" y="111"/>
      <point x="97" y="253" type="curve" smooth="yes"/>
      <point x="97" y="393"/>
      <point x="165" y="469"/>
      <point x="280" y="469" type="curve" smooth="yes"/>
      <point x="329" y="469"/>
      <point x="380" y="450"/>
      <point x="423" y="406" type="curve"/>
      <point x="444" y="438" type="line"/>
      <point x="405" y="482"/>
      <point x="344" y="508"/>
      <point x="281" y="508" type="curve" smooth="yes"/>
      <point x="143" y="508"/>
      <point x="54" y="416"/>
      <point x="54" y="254" type="curve" smooth="yes"/>
      <point x="54" y="92"/>
      <point x="141" y="-8"/>
    </contour>
  </outline>
</glyph>
<glyph name="d" format="2">
  <advance width="583"/>
  <unicode hex="0064"/>
  <anchor x="294" y="0" name="bottom"/>
  <anchor x="295" y="253" name="center"/>
  <anchor x="424" y="599" name="stroke"/>
  <anchor x="292" y="675" name="top"/>
  <anchor x="550" y="736" name="topright"/>
  <outline>
    <contour>
      <point x="274" y="-8" type="curve" smooth="yes"/>
      <point x="369" y="-8"/>
      <point x="441" y="44"/>
      <point x="464" y="131" type="curve"/>
      <point x="453" y="131" type="line"/>
      <point x="453" y="0" type="line"/>
      <point x="495" y="0" type="line"/>
      <point x="495" y="736" type="line"/>
      <point x="453" y="736" type="line"/>
      <point x="453" y="369" type="line"/>
      <point x="464" y="369" type="line"/>
      <point x="441" y="456"/>
      <point x="369" y="508"/>
      <point x="274" y="508" type="curve" smooth="yes"/>
      <point x="139" y="508"/>
      <point x="54" y="411"/>
      <point x="54" y="250" type="curve" smooth="yes"/>
      <point x="54" y="89"/>
      <point x="139" y="-8"/>
    </contour>
    <contour>
      <point x="275" y="31" type="curve" smooth="yes"/>
      <point x="165" y="31"/>
      <point x="97" y="109"/>
      <point x="97" y="250" type="curve" smooth="yes"/>
      <point x="97" y="391"/>
      <point x="165" y="469"/>
      <point x="275" y="469" type="curve" smooth="yes"/>
      <point x="383" y="469"/>
      <point x="454" y="391"/>
      <point x="454" y="250" type="curve" smooth="yes"/>
      <point x="454" y="109"/>
      <point x="383" y="31"/>
    </contour>
  </outline>
</glyph>
<glyph name="h" format="2">
  <advance width="570"/>
  <unicode hex="0068"/>
  <anchor x="286" y="0" name="bottom"/>
  <anchor x="286" y="253" name="center"/>
  <anchor x="209" y="365" name="dot"/>
  <anchor x="162" y="580" name="stroke"/>
  <anchor x="290" y="705" name="top"/>
  <anchor x="173" y="705" name="topright"/>
  <outline>
    <contour>
      <point x="88" y="0" type="line"/>
      <point x="130" y="0" type="line"/>
      <point x="130" y="290" type="line" smooth="yes"/>
      <point x="130" y="398"/>
      <point x="200" y="469"/>
      <point x="307" y="469" type="curve" smooth="yes"/>
      <point x="403" y="469"/>
      <point x="443" y="422"/>
      <point x="443" y="316" type="curve" smooth="yes"/>
      <point x="443" y="0" type="line"/>
      <point x="485" y="0" type="line"/>
      <point x="485" y="320" type="line" smooth="yes"/>
      <point x="485" y="445"/>
      <point x="428" y="508"/>
      <point x="307" y="508" type="curve" smooth="yes"/>
      <point x="217" y="508"/>
      <point x="145" y="464"/>
      <point x="118" y="379" type="curve"/>
      <point x="130" y="379" type="line"/>
      <point x="130" y="736" type="line"/>
      <point x="88" y="736" type="line"/>
    </contour>
  </outline>
</glyph>
<glyph name="m" format="2">
  <advance width="860"/>
  <unicode hex="006D"/>
  <anchor x="430" y="0" name="bottom"/>
  <anchor x="430" y="484" name="top"/>
  <outline>
    <contour>
      <point x="88" y="0" type="line"/>
      <point x="130" y="0" type="line"/>
      <point x="130" y="288" type="line" smooth="yes"/>
      <point x="130" y="398"/>
      <point x="190" y="469"/>
      <point x="287" y="469" type="curve" smooth="yes"/>
      <point x="373" y="469"/>
      <point x="410" y="422"/>
      <point x="410" y="314" type="curve" smooth="yes"/>
      <point x="410" y="0" type="line"/>
      <point x="452" y="0" type="line"/>
      <point x="452" y="288" type="line" smooth="yes"/>
      <point x="452" y="398"/>
      <point x="513" y="469"/>
      <point x="610" y="469" type="curve" smooth="yes"/>
      <point x="696" y="469"/>
      <point x="733" y="422"/>
      <point x="733" y="314" type="curve" smooth="yes"/>
      <point x="733" y="0" type="line"/>
      <point x="775" y="0" type="line"/>
      <point x="775" y="318" type="line" smooth="yes"/>
      <point x="775" y="448"/>
      <point x="718" y="508"/>
      <point x="611" y="508" type="curve" smooth="yes"/>
      <point x="521" y="508"/>
      <point x="454" y="457"/>
      <point x="432" y="379" type="curve"/>
      <point x="446" y="379" type="line"/>
      <point x="430" y="467"/>
      <point x="376" y="508"/>
      <point x="288" y="508" type="curve" smooth="yes"/>
      <point x="204" y="508"/>
      <point x="143" y="462"/>
      <point x="118" y="380" type="curve"/>
      <point x="130" y="380" type="line"/>
      <point x="121" y="500" type="line"/>
      <point x="80" y="500" type="line"/>
      <point x="84" y="463"/>
      <point x="88" y="426"/>
      <point x="88" y="392" type="curve" smooth="yes"/>
    </contour>
  </outline>
</glyph>
<glyph name="n" format="2">
  <advance width="570"/>
  <unicode hex="006E"/>
  <anchor x="284" y="0" name="bottom"/>
  <anchor x="284" y="484" name="top"/>
  <outline>
    <contour>
      <point x="88" y="0" type="line"/>
      <point x="130" y="0" type="line"/>
      <point x="130" y="288" type="line" smooth="yes"/>
      <point x="130" y="398"/>
      <point x="198" y="469"/>
      <point x="306" y="469" type="curve" smooth="yes"/>
      <point x="400" y="469"/>
      <point x="443" y="422"/>
      <point x="443" y="314" type="curve" smooth="yes"/>
      <point x="443" y="0" type="line"/>
      <point x="485" y="0" type="line"/>
      <point x="485" y="318" type="line" smooth="yes"/>
      <point x="485" y="449"/>
      <point x="423" y="508"/>
      <point x="305" y="508" type="curve" smooth="yes"/>
      <point x="215" y="508"/>
      <point x="146" y="464"/>
      <point x="118" y="380" type="curve"/>
      <point x="130" y="380" type="line"/>
      <point x="121" y="500" type="line"/>
      <point x="80" y="500" type="line"/>
      <point x="84" y="463"/>
      <point x="88" y="426"/>
      <point x="88" y="392" type="curve" smooth="yes"/>
    </contour>
  </outline>
</glyph>
<glyph name="r" format="2">
  <advance width="336"/>
  <unicode hex="0072"/>
  <anchor x="107" y="0" name="bottom"/>
  <anchor x="208" y="484" name="top"/>
  <outline>
    <contour>
      <point x="86" y="0" type="line"/>
      <point x="128" y="0" type="line"/>
      <point x="128" y="320" type="line" smooth="yes"/>
      <point x="128" y="386"/>
      <point x="188" y="469"/>
      <point x="281" y="469" type="curve" smooth="yes"/>
      <point x="298" y="469"/>
      <point x="314" y="468"/>
      <point x="327" y="464" type="curve"/>
      <point x="329" y="503" type="line"/>
      <point x="315" y="507"/>
      <point x="300" y="508"/>
      <point x="284" y="508" type="curve" smooth="yes"/>
      <point x="216" y="508"/>
      <point x="138" y="470"/>
      <point x="118" y="390" type="curve"/>
      <point x="127" y="391" type="line"/>
      <point x="121" y="500" type="line"/>
      <point x="80" y="500" type="line"/>
      <point x="84" y="463"/>
      <point x="86" y="423"/>
      <point x="86" y="386" type="curve" smooth="yes"/>
    </contour>
  </outline>
</glyph>
<glyph name="u" format="2">
  <advance width="561"/>
  <unicode hex="0075"/>
  <anchor x="281" y="0" name="bottom"/>
  <anchor x="473" y="0" name="ogonek"/>
  <anchor x="281" y="485" name="top"/>
  <anchor x="431" y="500" name="topright"/>
  <outline>
    <contour>
      <point x="262" y="-8" type="curve" smooth="yes"/>
      <point x="349" y="-8"/>
      <point x="417" y="39"/>
      <point x="444" y="122" type="curve"/>
      <point x="432" y="122" type="line"/>
      <point x="432" y="0" type="line"/>
      <point x="473" y="0" type="line"/>
      <point x="473" y="500" type="line"/>
      <point x="431" y="500" type="line"/>
      <point x="431" y="212" type="line" smooth="yes"/>
      <point x="431" y="103"/>
      <point x="364" y="31"/>
      <point x="262" y="31" type="curve" smooth="yes"/>
      <point x="170" y="31"/>
      <point x="127" y="79"/>
      <point x="127" y="187" type="curve" smooth="yes"/>
      <point x="127" y="500" type="line"/>
      <point x="85" y="500" type="line"/>
      <point x="85" y="183" type="line" smooth="yes"/>
      <point x="85" y="54"/>
      <point x="146" y="-8"/>
    </contour>
  </outline>
</glyph>
<glyph name="z" format="2">
  <advance width="512"/>
  <unicode hex="007A"/>
  <anchor x="251" y="0" name="bottom"/>
  <anchor x="251" y="484" name="top"/>
  <outline>
    <contour>
      <point x="51" y="0" type="line"/>
      <point x="464" y="0" type="line"/>
      <point x="464" y="36" type="line"/>
      <point x="90" y="36" type="line"/>
      <point x="91" y="22" type="line"/>
      <point x="452" y="470" type="line"/>
      <point x="452" y="500" type="line"/>
      <point x="51" y="500" type="line"/>
      <point x="51" y="464" type="line"/>
      <point x="411" y="464" type="line"/>
      <point x="410" y="477" type="line"/>
      <point x="51" y="30" type="line"/>
    </contour>
  </outline>
</glyph>
<glyph name="asciitilde" format="2">
  <advance width="600"/>
  <unicode hex="007E"/>
  <outline>
    <contour>
      <point x="422" y="224" type="curve" smooth="yes"/>
      <point x="479" y="224"/>
      <point x="518" y="253"/>
      <point x="548" y="317" type="curve"/>
      <point x="512" y="332" type="line"/>
      <point x="491" y="285"/>
      <point x="461" y="263"/>
      <point x="420" y="263" type="curve" smooth="yes"/>
      <point x="392" y="263"/>
      <point x="365" y="277"/>
      <point x="309" y="307" type="curve" smooth="yes"/>
      <point x="248" y="339"/>
      <point x="214" y="350"/>
      <point x="178" y="350" type="curve" smooth="yes"/>
      <point x="122" y="350"/>
      <point x="81" y="320"/>
      <point x="52" y="257" type="curve"/>
      <point x="88" y="242" type="line"/>
      <point x="110" y="290"/>
      <point x="139" y="311"/>
      <point x="180" y="311" type="curve" smooth="yes"/>
      <point x="204" y="311"/>
      <point x="227" y="303"/>
      <point x="287" y="270" type="curve" smooth="yes"/>
      <point x="347" y="237"/>
      <point x="386" y="224"/>
    </contour>
  </outline>
</glyph>
<glyph name="exclamdown" format="2">
  <advance width="211"/>
  <unicode hex="00A1"/>
  <outline>
    <contour>
      <point x="79" y="-180" type="line"/>
      <point x="132" y="-180" type="line"/>
      <point x="119" y="339" type="line"/>
      <point x="92" y="339" type="line"/>
    </contour>
    <contour>
      <point x="71" y="430" type="line"/>
      <point x="140" y="430" type="line"/>
      <point x="140" y="500" type="line"/>
      <point x="71" y="500" type="line"/>
    </contour>
  </outline>
</glyph>
<glyph name="cent" format="2">
  <advance width="600"/>
  <unicode hex="00A2"/>
  <outline>
    <contour>
      <point x="296" y="-115" type="line"/>
      <point x="336" y="-115" type="line"/>
      <point x="336" y="8" type="line"/>
      <point x="325" y="-7" type="line"/>
      <point x="384" y="-7"/>
      <point x="451" y="18"/>
      <point x="488" y="59" type="curve"/>
      <point x="468" y="91" type="line"/>
      <point x="429" y="51"/>
      <point x="377" y="33"/>
      <point x="322" y="33" type="curve" smooth="yes"/>
      <point x="211" y="33"/>
      <point x="142" y="113"/>
      <point x="142" y="242" type="curve" smooth="yes"/>
      <point x="142" y="368"/>
      <point x="213" y="451"/>
      <point x="323" y="451" type="curve" smooth="yes"/>
      <point x="377" y="451"/>
      <point x="429" y="432"/>
      <point x="468" y="392" type="curve"/>
      <point x="488" y="425" type="line"/>
      <point x="453" y="465"/>
      <point x="386" y="490"/>
      <point x="327" y="490" type="curve"/>
      <point x="336" y="468" type="line"/>
      <point x="336" y="604" type="line"/>
      <point x="296" y="604" type="line"/>
      <point x="296" y="468" type="line"/>
      <point x="305" y="490" type="line"/>
      <point x="181" y="480"/>
      <point x="99" y="379"/>
      <point x="99" y="243" type="curve" smooth="yes"/>
      <point x="99" y="102"/>
      <point x="184" y="-1"/>
      <point x="306" y="-6" type="curve"/>
      <point x="296" y="8" type="line"/>
    </contour>
  </outline>
</glyph>
<glyph name="sterling" format="2">
  <advance width="600"/>
  <unicode hex="00A3"/>
  <outline>
    <contour>
      <point x="49" y="0" type="line"/>
      <point x="559" y="0" type="line"/>
      <point x="559" y="39" type="line"/>
      <point x="111" y="39" type="line"/>
      <point x="111" y="33" type="line"/>
      <point x="167" y="56"/>
      <point x="207" y="100"/>
      <point x="207" y="186" type="curve" smooth="yes"/>
      <point x="207" y="336" type="line"/>
      <point x="406" y="336" type="line"/>
      <point x="406" y="372" type="line"/>
      <point x="207" y="372" type="line"/>
      <point x="207" y="524" type="line" smooth="yes"/>
      <point x="207" y="623"/>
      <point x="260" y="672"/>
      <point x="361" y="672" type="curve" smooth="yes"/>
      <point x="441" y="672"/>
      <point x="499" y="647"/>
      <point x="540" y="592" type="curve"/>
      <point x="563" y="629" type="line"/>
      <point x="514" y="683"/>
      <point x="444" y="713"/>
      <point x="369" y="713" type="curve" smooth="yes"/>
      <point x="234" y="713"/>
      <point x="165" y="647"/>
      <point x="165" y="522" type="curve" smooth="yes"/>
      <point x="165" y="372" type="line"/>
      <point x="49" y="372" type="line"/>
      <point x="49" y="336" type="line"/>
      <point x="165" y="336" type="line"/>
      <point x="165" y="167" type="line" smooth="yes"/>
      <point x="165" y="103"/>
      <point x="120" y="64"/>
      <point x="49" y="33" type="curve"/>
    </contour>
  </outline>
</glyph>
<glyph name="yen" format="2">
  <advance width="600"/>
  <unicode hex="00A5"/>
  <outline>
    <contour>
      <point x="279" y="0" type="line"/>
      <point x="321" y="0" type="line"/>
      <point x="321" y="189" type="line"/>
      <point x="524" y="189" type="line"/>
      <point x="524" y="225" type="line"/>
      <point x="321" y="225" type="line"/>
      <point x="321" y="339" type="line"/>
      <point x="524" y="339" type="line"/>
      <point x="524" y="375" type="line"/>
      <point x="347" y="375" type="line"/>
      <point x="347" y="368" type="line"/>
      <point x="595" y="705" type="line"/>
      <point x="545" y="705" type="line"/>
      <point x="293" y="362" type="line"/>
      <point x="308" y="362" type="line"/>
      <point x="55" y="705" type="line"/>
      <point x="5" y="705" type="line"/>
      <point x="255" y="368" type="line"/>
      <point x="255" y="375" type="line"/>
      <point x="76" y="375" type="line"/>
      <point x="76" y="339" type="line"/>
      <point x="279" y="339" type="line"/>
      <point x="279" y="225" type="line"/>
      <point x="76" y="225" type="line"/>
      <point x="76" y="189" type="line"/>
      <point x="279" y="189" type="line"/>
    </contour>
  </outline>
</glyph>
<glyph name="brokenbar" format="2">
  <advance width="248"/>
  <unicode hex="00A6"/>
  <outline>
    <contour>
      <point x="103" y="372" type="line"/>
      <point x="145" y="372" type="line"/>
      <point x="145" y="713" type="line"/>
      <point x="103" y="713" type="line"/>
    </contour>
    <contour>
      <point x="103" y="-188" type="line"/>
      <point x="145" y="-188" type="line"/>
      <point x="145" y="153" type="line"/>
      <point x="103" y="153" type="line"/>
    </contour>
  </outline>
</glyph>
<glyph name="section" format="2">
  <advance width="518"/>
  <unicode hex="00A7"/>
  <outline>
    <contour>
      <point x="232" y="-188" type="curve" smooth="yes"/>
      <point x="351" y="-188"/>
      <point x="438" y="-123"/>
      <point x="438" y="-14" type="curve" smooth="yes"/>
      <point x="438" y="25"/>
      <point x="429" y="49"/>
      <point x="421" y="64" type="curve"/>
      <point x="416" y="50" type="line"/>
      <point x="452" y="79"/>
      <point x="480" y="132"/>
      <point x="480" y="182" type="curve" smooth="yes"/>
      <point x="480" y="255"/>
      <point x="447" y="300"/>
      <point x="331" y="355" type="curve" smooth="yes"/>
      <point x="233" y="401" type="line" smooth="yes"/>
      <point x="152" y="439"/>
      <point x="125" y="479"/>
      <point x="125" y="539" type="curve" smooth="yes"/>
      <point x="125" y="625"/>
      <point x="190" y="673"/>
      <point x="279" y="673" type="curve" smooth="yes"/>
      <point x="343" y="673"/>
      <point x="407" y="651"/>
      <point x="447" y="612" type="curve"/>
      <point x="468" y="646" type="line"/>
      <point x="427" y="688"/>
      <point x="358" y="712"/>
      <point x="282" y="712" type="curve" smooth="yes"/>
      <point x="168" y="712"/>
      <point x="81" y="647"/>
      <point x="81" y="538" type="curve" smooth="yes"/>
      <point x="81" y="499"/>
      <point x="90" y="475"/>
      <point x="98" y="460" type="curve"/>
      <point x="103" y="474" type="line"/>
      <point x="67" y="445"/>
      <point x="39" y="392"/>
      <point x="39" y="342" type="curve" smooth="yes"/>
      <point x="39" y="269"/>
      <point x="72" y="224"/>
      <point x="188" y="169" type="curve" smooth="yes"/>
      <point x="286" y="123" type="line" smooth="yes"/>
      <point x="367" y="85"/>
      <point x="394" y="45"/>
      <point x="394" y="-15" type="curve" smooth="yes"/>
      <point x="394" y="-101"/>
      <point x="329" y="-149"/>
      <point x="235" y="-149" type="curve" smooth="yes"/>
      <point x="167" y="-149"/>
      <point x="100" y="-127"/>
      <point x="60" y="-88" type="curve"/>
      <point x="39" y="-122" type="line"/>
      <point x="80" y="-164"/>
      <point x="149" y="-188"/>
    </contour>
    <contour>
      <point x="81" y="345" type="curve" smooth="yes"/>
      <point x="81" y="385"/>
      <point x="97" y="420"/>
      <point x="127" y="444" type="curve"/>
      <point x="108" y="445" type="line"/>
      <point x="129" y="415"/>
      <point x="168" y="385"/>
      <point x="231" y="355" type="curve" smooth="yes"/>
      <point x="314" y="316" type="line" smooth="yes"/>
      <point x="411" y="271"/>
      <point x="439" y="234"/>
      <point x="439" y="179" type="curve" smooth="yes"/>
      <point x="439" y="139"/>
      <point x="422" y="104"/>
      <point x="392" y="80" type="curve"/>
      <point x="411" y="79" type="line"/>
      <point x="390" y="109"/>
      <point x="351" y="139"/>
      <point x="288" y="169" type="curve" smooth="yes"/>
      <point x="205" y="208" type="line" smooth="yes"/>
      <point x="108" y="253"/>
      <point x="81" y="290"/>
    </contour>
  </outline>
</glyph>
<glyph name="ordfeminine" format="2">
  <advance width="313"/>
  <unicode hex="00AA"/>
  <outline>
    <contour>
      <point x="132" y="413" type="curve" smooth="yes"/>
      <point x="179" y="413"/>
      <point x="210" y="430"/>
      <point x="233" y="471" type="curve"/>
      <point x="235" y="471" type="line"/>
      <point x="235" y="418" type="line"/>
      <point x="269" y="418" type="line"/>
      <point x="269" y="605" type="line" smooth="yes"/>
      <point x="269" y="677"/>
      <point x="231" y="713"/>
      <point x="156" y="713" type="curve" smooth="yes"/>
      <point x="114" y="713"/>
      <point x="71" y="703"/>
      <point x="39" y="681" type="curve"/>
      <point x="51" y="651" type="line"/>
      <point x="81" y="672"/>
      <point x="118" y="682"/>
      <point x="157" y="682" type="curve" smooth="yes"/>
      <point x="208" y="682"/>
      <point x="235" y="657"/>
      <point x="235" y="606" type="curve" smooth="yes"/>
      <point x="235" y="549" type="line" smooth="yes"/>
      <point x="235" y="483"/>
      <point x="194" y="444"/>
      <point x="137" y="444" type="curve" smooth="yes"/>
      <point x="85" y="444"/>
      <point x="63" y="469"/>
      <point x="63" y="501" type="curve" smooth="yes"/>
      <point x="63" y="538"/>
      <point x="102" y="556"/>
      <point x="175" y="556" type="curve" smooth="yes"/>
      <point x="241" y="556" type="line"/>
      <point x="241" y="585" type="line"/>
      <point x="174" y="585" type="line" smooth="yes"/>
      <point x="89" y="585"/>
      <point x="27" y="560"/>
      <point x="27" y="501" type="curve" smooth="yes"/>
      <point x="27" y="450"/>
      <point x="72" y="413"/>
    </contour>
  </outline>
</glyph>
<glyph name="plusminus" format="2">
  <advance width="600"/>
  <unicode hex="00B1"/>
  <outline>
    <contour>
      <point x="280" y="116" type="line"/>
      <point x="320" y="116" type="line"/>
      <point x="320" y="303" type="line"/>
      <point x="548" y="303" type="line"/>
      <point x="548" y="342" type="line"/>
      <point x="320" y="342" type="line"/>
      <point x="320" y="528" type="line"/>
      <point x="280" y="528" type="line"/>
      <point x="280" y="342" type="line"/>
      <point x="52" y="342" type="line"/>
      <point x="52" y="303" type="line"/>
      <point x="280" y="303" type="line"/>
    </contour>
    <contour>
      <point x="52" y="0" type="line"/>
      <point x="548" y="0" type="line"/>
      <point x="548" y="39" type="line"/>
      <point x="52" y="39" type="line"/>
    </contour>
  </outline>
</glyph>
<glyph name="micro" format="2">
  <advance width="561"/>
  <unicode hex="00B5"/>
  <outline>
    <contour>
      <point x="85" y="-216" type="line"/>
      <point x="127" y="-216" type="line"/>
      <point x="123" y="81" type="line"/>
      <point x="107" y="81" type="line"/>
      <point x="135" y="12"/>
      <point x="192" y="-8"/>
      <point x="262" y="-8" type="curve" smooth="yes"/>
      <point x="348" y="-8"/>
      <point x="417" y="38"/>
      <point x="444" y="121" type="curve"/>
      <point x="432" y="121" type="line"/>
      <point x="432" y="0" type="line"/>
      <point x="473" y="0" type="line"/>
      <point x="473" y="500" type="line"/>
      <point x="431" y="500" type="line"/>
      <point x="431" y="210" type="line" smooth="yes"/>
      <point x="431" y="102"/>
      <point x="363" y="33"/>
      <point x="260" y="33" type="curve" smooth="yes"/>
      <point x="170" y="33"/>
      <point x="127" y="79"/>
      <point x="127" y="184" type="curve" smooth="yes"/>
      <point x="127" y="500" type="line"/>
      <point x="85" y="500" type="line"/>
    </contour>
  </outline>
</glyph>
<glyph name="AE" format="2">
  <advance width="996"/>
  <unicode hex="00C6"/>
  <guideline x="531" y="344" angle="95.3971"/>
  <guideline x="573" y="344" angle="95.3971"/>
  <anchor x="515" y="0" name="bottom"/>
  <anchor x="514" y="705" name="top"/>
  <outline>
    <contour>
      <point x="14" y="0" type="line"/>
      <point x="64" y="0" type="line"/>
      <point x="189" y="207" type="line"/>
      <point x="170" y="195" type="line"/>
      <point x="568" y="195" type="line"/>
      <point x="544" y="198" type="line"/>
      <point x="563" y="0" type="line"/>
      <point x="939" y="0" type="line"/>
      <point x="939" y="39" type="line"/>
      <point x="597" y="39" type="line"/>
      <point x="604" y="20" type="line"/>
      <point x="572" y="348" type="line"/>
      <point x="564" y="338" type="line"/>
      <point x="918" y="338" type="line"/>
      <point x="918" y="377" type="line"/>
      <point x="554" y="377" type="line"/>
      <point x="571" y="366" type="line"/>
      <point x="540" y="690" type="line"/>
      <point x="520" y="666" type="line"/>
      <point x="939" y="666" type="line"/>
      <point x="939" y="705" type="line"/>
      <point x="437" y="705" type="line"/>
    </contour>
    <contour>
      <point x="461" y="665" type="line"/>
      <point x="500" y="665" type="line"/>
      <point x="542" y="225" type="line"/>
      <point x="549" y="234" type="line"/>
      <point x="190" y="234" type="line"/>
      <point x="199" y="224" type="line"/>
    </contour>
  </outline>
</glyph>
<glyph name="multiply" format="2">
  <advance width="600"/>
  <unicode hex="00D7"/>
  <outline>
    <contour>
      <point x="93" y="49" type="line"/>
      <point x="300" y="256" type="line"/>
      <point x="507" y="49" type="line"/>
      <point x="535" y="76" type="line"/>
      <point x="328" y="284" type="line"/>
      <point x="535" y="492" type="line"/>
      <point x="507" y="519" type="line"/>
      <point x="300" y="312" type="line"/>
      <point x="93" y="519" type="line"/>
      <point x="65" y="492" type="line"/>
      <point x="272" y="284" type="line"/>
      <point x="65" y="76" type="line"/>
    </contour>
  </outline>
</glyph>
<glyph name="ae" format="2">
  <advance width="890"/>
  <unicode hex="00E6"/>
  <anchor x="436" y="0" name="bottom"/>
  <anchor x="436" y="484" name="top"/>
  <outline>
    <contour>
      <point x="247" y="-8" type="curve" smooth="yes"/>
      <point x="349" y="-8"/>
      <point x="424" y="56"/>
      <point x="442" y="163" type="curve"/>
      <point x="423" y="163" type="line"/>
      <point x="450" y="52"/>
      <point x="527" y="-8"/>
      <point x="647" y="-8" type="curve" smooth="yes"/>
      <point x="716" y="-8"/>
      <point x="789" y="18"/>
      <point x="831" y="64" type="curve"/>
      <point x="810" y="97" type="line"/>
      <point x="759" y="51"/>
      <point x="706" y="31"/>
      <point x="646" y="31" type="curve" smooth="yes"/>
      <point x="524" y="31"/>
      <point x="456" y="118"/>
      <point x="456" y="260" type="curve" smooth="yes"/>
      <point x="456" y="267" type="line" smooth="yes"/>
      <point x="456" y="398"/>
      <point x="526" y="470"/>
      <point x="636" y="470" type="curve" smooth="yes"/>
      <point x="743" y="470"/>
      <point x="800" y="397"/>
      <point x="800" y="280" type="curve"/>
      <point x="817" y="293" type="line"/>
      <point x="445" y="293" type="line"/>
      <point x="445" y="255" type="line"/>
      <point x="839" y="255" type="line"/>
      <point x="839" y="279" type="line" smooth="yes"/>
      <point x="839" y="420"/>
      <point x="763" y="508"/>
      <point x="639" y="508" type="curve" smooth="yes"/>
      <point x="541" y="508"/>
      <point x="469" y="458"/>
      <point x="435" y="366" type="curve"/>
      <point x="454" y="366" type="line"/>
      <point x="442" y="458"/>
      <point x="390" y="508"/>
      <point x="283" y="508" type="curve" smooth="yes"/>
      <point x="214" y="508"/>
      <point x="144" y="486"/>
      <point x="93" y="449" type="curve"/>
      <point x="113" y="413" type="line"/>
      <point x="169" y="453"/>
      <point x="221" y="469"/>
      <point x="285" y="469" type="curve" smooth="yes"/>
      <point x="371" y="469"/>
      <point x="413" y="428"/>
      <point x="413" y="328" type="curve" smooth="yes"/>
      <point x="413" y="209" type="line" smooth="yes"/>
      <point x="413" y="103"/>
      <point x="345" y="30"/>
      <point x="250" y="30" type="curve" smooth="yes"/>
      <point x="169" y="30"/>
      <point x="118" y="76"/>
      <point x="118" y="144" type="curve" smooth="yes"/>
      <point x="118" y="233"/>
      <point x="171" y="256"/>
      <point x="371" y="256" type="curve" smooth="yes"/>
      <point x="421" y="256" type="line"/>
      <point x="421" y="293" type="line"/>
      <point x="369" y="293" type="line" smooth="yes"/>
      <point x="143" y="293"/>
      <point x="72" y="259"/>
      <point x="72" y="141" type="curve" smooth="yes"/>
      <point x="72" y="55"/>
      <point x="147" y="-8"/>
    </contour>
  </outline>
</glyph>
<glyph name="divide" format="2">
  <advance width="600"/>
  <unicode hex="00F7"/>
  <outline>
    <contour>
      <point x="52" y="267" type="line"/>
      <point x="548" y="267" type="line"/>
      <point x="548" y="306" type="line"/>
      <point x="52" y="306" type="line"/>
    </contour>
    <contour>
      <point x="260" y="51" type="line"/>
      <point x="330" y="51" type="line"/>
      <point x="330" y="121" type="line"/>
      <point x="260" y="121" type="line"/>
    </contour>
    <contour>
      <point x="260" y="452" type="line"/>
      <point x="330" y="452" type="line"/>
      <point x="330" y="522" type="line"/>
      <point x="260" y="522" type="line"/>
    </contour>
  </outline>
</glyph>
<glyph name="thorn" format="2">
  <advance width="583"/>
  <unicode hex="00FE"/>
  <anchor x="290" y="0" name="bottom"/>
  <anchor x="290" y="484" name="top"/>
  <outline>
    <contour>
      <point x="88" y="-216" type="line"/>
      <point x="130" y="-216" type="line"/>
      <point x="130" y="131" type="line"/>
      <point x="119" y="131" type="line"/>
      <point x="141" y="44"/>
      <point x="212" y="-8"/>
      <point x="308" y="-8" type="curve" smooth="yes"/>
      <point x="444" y="-8"/>
      <point x="529" y="89"/>
      <point x="529" y="250" type="curve" smooth="yes"/>
      <point x="529" y="411"/>
      <point x="443" y="508"/>
      <point x="308" y="508" type="curve" smooth="yes"/>
      <point x="212" y="508"/>
      <point x="141" y="456"/>
      <point x="119" y="369" type="curve"/>
      <point x="130" y="369" type="line"/>
      <point x="130" y="736" type="line"/>
      <point x="88" y="736" type="line"/>
    </contour>
    <contour>
      <point x="308" y="31" type="curve" smooth="yes"/>
      <point x="199" y="31"/>
      <point x="129" y="109"/>
      <point x="129" y="250" type="curve" smooth="yes"/>
      <point x="129" y="391"/>
      <point x="199" y="469"/>
      <point x="308" y="469" type="curve" smooth="yes"/>
      <point x="417" y="469"/>
      <point x="486" y="391"/>
      <point x="486" y="250" type="curve" smooth="yes"/>
      <point x="486" y="109"/>
      <point x="417" y="31"/>
    </contour>
  </outline>
</glyph>
<glyph name="idotless" format="2">
  <advance width="218"/>
  <unicode hex="0131"/>
  <anchor x="109" y="0" name="bottom"/>
  <anchor x="131" y="0" name="ogonek"/>
  <anchor x="109" y="484" name="top"/>
  <outline>
    <contour>
      <point x="88" y="0" type="line"/>
      <point x="130" y="0" type="line"/>
      <point x="130" y="500" type="line"/>
      <point x="88" y="500" type="line"/>
    </contour>
  </outline>
</glyph>
<glyph name="kgreenlandic" format="2">
  <advance width="482"/>
  <unicode hex="0138"/>
  <anchor x="241" y="0" name="bottom"/>
  <anchor x="241" y="484" name="top"/>
  <outline>
    <contour>
      <point x="88" y="0" type="line"/>
      <point x="130" y="0" type="line"/>
      <point x="130" y="245" type="line"/>
      <point x="132" y="245" type="line"/>
      <point x="421" y="0" type="line"/>
      <point x="482" y="0" type="line"/>
      <point x="159" y="274" type="line"/>
      <point x="156" y="241" type="line"/>
      <point x="449" y="500" type="line"/>
      <point x="391" y="500" type="line"/>
      <point x="132" y="269" type="line"/>
      <point x="130" y="269" type="line"/>
      <point x="130" y="500" type="line"/>
      <point x="88" y="500" type="line"/>
    </contour>
  </outline>
</glyph>
<glyph name="OE" format="2">
  <advance width="1057"/>
  <unicode hex="0152"/>
  <anchor x="603" y="0" name="bottom"/>
  <anchor x="603" y="705" name="top"/>
  <outline>
    <contour>
      <point x="572" y="0" type="line"/>
      <point x="1000" y="0" type="line"/>
      <point x="1000" y="39" type="line"/>
      <point x="614" y="39" type="line"/>
      <point x="614" y="338" type="line"/>
      <point x="980" y="338" type="line"/>
      <point x="980" y="377" type="line"/>
      <point x="614" y="377" type="line"/>
      <point x="614" y="666" type="line"/>
      <point x="1000" y="666" type="line"/>
      <point x="1000" y="705" type="line"/>
      <point x="572" y="705" type="line"/>
    </contour>
    <contour>
      <point x="379" y="-8" type="curve" smooth="yes"/>
      <point x="467" y="-8"/>
      <point x="540" y="18"/>
      <point x="594" y="68" type="curve"/>
      <point x="594" y="135" type="line"/>
      <point x="548" y="64"/>
      <point x="475" y="33"/>
      <point x="379" y="33" type="curve" smooth="yes"/>
      <point x="206" y="33"/>
      <point x="113" y="151"/>
      <point x="113" y="353" type="curve" smooth="yes"/>
      <point x="113" y="555"/>
      <point x="206" y="672"/>
      <point x="379" y="672" type="curve" smooth="yes"/>
      <point x="472" y="672"/>
      <point x="544" y="651"/>
      <point x="589" y="585" type="curve"/>
      <point x="589" y="648" type="line"/>
      <point x="537" y="696"/>
      <point x="465" y="713"/>
      <point x="379" y="713" type="curve" smooth="yes"/>
      <point x="181" y="713"/>
      <point x="68" y="576"/>
      <point x="68" y="353" type="curve" smooth="yes"/>
      <point x="68" y="130"/>
      <point x="183" y="-8"/>
    </contour>
  </outline>
</glyph>
<glyph name="Dhook" format="2">
  <advance width="839"/>
  <unicode hex="018A"/>
  <outline>
    <contour>
      <point x="203" y="0" type="line"/>
      <point x="417" y="0" type="line" smooth="yes"/>
      <point x="645" y="0"/>
      <point x="771" y="122"/>
      <point x="771" y="353" type="curve" smooth="yes"/>
      <point x="771" y="583"/>
      <point x="645" y="705"/>
      <point x="417" y="705" type="curve" smooth="yes"/>
      <point x="166" y="705" type="line" smooth="yes"/>
      <point x="54" y="705"/>
      <point x="-1" y="655"/>
      <point x="-1" y="551" type="curve" smooth="yes"/>
      <point x="-1" y="506" type="line"/>
      <point x="39" y="506" type="line"/>
      <point x="39" y="549" type="line" smooth="yes"/>
      <point x="39" y="629"/>
      <point x="79" y="666"/>
      <point x="164" y="666" type="curve" smooth="yes"/>
      <point x="203" y="666" type="line"/>
    </contour>
    <contour>
      <point x="245" y="39" type="line"/>
      <point x="245" y="666" type="line"/>
      <point x="413" y="666" type="line" smooth="yes"/>
      <point x="623" y="666"/>
      <point x="726" y="562"/>
      <point x="726" y="353" type="curve" smooth="yes"/>
      <point x="726" y="144"/>
      <point x="623" y="39"/>
      <point x="413" y="39" type="curve" smooth="yes"/>
    </contour>
  </outline>
</glyph>
<glyph name="Schwa" format="2">
  <advance width="736"/>
  <unicode hex="018F"/>
  <anchor x="382" y="0" name="bottom"/>
  <anchor x="382" y="705" name="top"/>
  <outline>
    <contour>
      <point x="363" y="-8" type="curve" smooth="yes"/>
      <point x="556" y="-8"/>
      <point x="668" y="129"/>
      <point x="668" y="354" type="curve" smooth="yes"/>
      <point x="668" y="578"/>
      <point x="550" y="713"/>
      <point x="349" y="713" type="curve" smooth="yes"/>
      <point x="235" y="713"/>
      <point x="157" y="681"/>
      <point x="95" y="617" type="curve"/>
      <point x="116" y="582" type="line"/>
      <point x="186" y="646"/>
      <point x="244" y="672"/>
      <point x="347" y="672" type="curve" smooth="yes"/>
      <point x="526" y="672"/>
      <point x="623" y="557"/>
      <point x="623" y="354" type="curve" smooth="yes"/>
      <point x="623" y="151"/>
      <point x="531" y="33"/>
      <point x="362" y="33" type="curve" smooth="yes"/>
      <point x="178" y="33"/>
      <point x="112" y="147"/>
      <point x="112" y="353" type="curve"/>
      <point x="100" y="337" type="line"/>
      <point x="628" y="337" type="line"/>
      <point x="628" y="376" type="line"/>
      <point x="68" y="376" type="line"/>
      <point x="68" y="348" type="line" smooth="yes"/>
      <point x="68" y="132"/>
      <point x="150" y="-8"/>
    </contour>
  </outline>
</glyph>
<glyph name="Yhook" format="2">
  <advance width="587"/>
  <unicode hex="01B3"/>
  <outline>
    <contour>
      <point x="272" y="0" type="line"/>
      <point x="314" y="0" type="line"/>
      <point x="314" y="366" type="line"/>
      <point x="304" y="328" type="line"/>
      <point x="517" y="623" type="line" smooth="yes"/>
      <point x="545" y="662"/>
      <point x="574" y="675"/>
      <point x="610" y="675" type="curve" smooth="yes"/>
      <point x="629" y="675"/>
      <point x="644" y="672"/>
      <point x="658" y="667" type="curve"/>
      <point x="658" y="704" type="line"/>
      <point x="640" y="710"/>
      <point x="629" y="712"/>
      <point x="608" y="712" type="curve" smooth="yes"/>
      <point x="561" y="712"/>
      <point x="521" y="692"/>
      <point x="486" y="643" type="curve" smooth="yes"/>
      <point x="288" y="367" type="line"/>
      <point x="302" y="367" type="line"/>
      <point x="50" y="705" type="line"/>
      <point x="1" y="705" type="line"/>
      <point x="283" y="328" type="line"/>
      <point x="272" y="366" type="line"/>
    </contour>
  </outline>
</glyph>
<glyph name="firsttonechinese" format="2">
  <advance width="500"/>
  <unicode hex="02C9"/>
  <anchor x="250" y="484" name="_top"/>
  <anchor x="250" y="685" name="top"/>
  <outline>
    <contour>
      <point x="110" y="633" type="line"/>
      <point x="390" y="633" type="line"/>
      <point x="390" y="671" type="line"/>
      <point x="110" y="671" type="line"/>
    </contour>
  </outline>
</glyph>
<glyph name="fourthtonechinese" format="2">
  <advance width="500"/>
  <unicode hex="02CB"/>
  <anchor x="250" y="484" name="_top"/>
  <anchor x="250" y="685" name="top"/>
  <outline>
    <contour>
      <point x="232" y="549" type="line"/>
      <point x="268" y="549" type="line"/>
      <point x="164" y="749" type="line"/>
      <point x="110" y="749" type="line"/>
    </contour>
  </outline>
</glyph>
<glyph name="hookabovecomb" format="2">
  <unicode hex="0309"/>
  <anchor x="0" y="484" name="_top"/>
  <anchor x="0" y="685" name="top"/>
  <outline>
    <contour>
      <point x="-18" y="549" type="line"/>
      <point x="18" y="549" type="line"/>
      <point x="18" y="564" type="line" smooth="yes"/>
      <point x="18" y="623"/>
      <point x="91" y="623"/>
      <point x="91" y="689" type="curve" smooth="yes"/>
      <point x="91" y="730"/>
      <point x="58" y="754"/>
      <point x="2" y="754" type="curve" smooth="yes"/>
      <point x="-28" y="754"/>
      <point x="-55" y="748"/>
      <point x="-76" y="734" type="curve"/>
      <point x="-67" y="702" type="line"/>
      <point x="-42" y="714"/>
      <point x="-22" y="718"/>
      <point x="-2" y="718" type="curve" smooth="yes"/>
      <point x="34" y="718"/>
      <point x="50" y="707"/>
      <point x="50" y="687" type="curve" smooth="yes"/>
      <point x="50" y="644"/>
      <point x="-18" y="635"/>
      <point x="-18" y="569" type="curve" smooth="yes"/>
    </contour>
  </outline>
</glyph>
<glyph name="breveinvertedcomb" format="2">
  <unicode hex="0311"/>
  <anchor x="0" y="490" name="_top"/>
  <anchor x="0" y="685" name="top"/>
  <outline>
    <contour>
      <point x="-111" y="547" type="line"/>
      <point x="-106" y="646"/>
      <point x="-66" y="702"/>
      <point x="0" y="702" type="curve" smooth="yes"/>
      <point x="66" y="702"/>
      <point x="106" y="646"/>
      <point x="111" y="547" type="curve"/>
      <point x="144" y="551" type="line"/>
      <point x="137" y="668"/>
      <point x="83" y="738"/>
      <point x="0" y="738" type="curve" smooth="yes"/>
      <point x="-83" y="738"/>
      <point x="-137" y="668"/>
      <point x="-144" y="551" type="curve"/>
    </contour>
  </outline>
</glyph>
<glyph name="slashshortcomb" format="2">
  <unicode hex="0337"/>
  <anchor x="0" y="357" name="_center"/>
  <outline>
    <contour>
      <point x="-104" y="274" type="line"/>
      <point x="124" y="407" type="line"/>
      <point x="104" y="440" type="line"/>
      <point x="-124" y="307" type="line"/>
    </contour>
  </outline>
</glyph>
<glyph name="Delta" format="2">
  <advance width="712"/>
  <unicode hex="0394"/>
  <outline>
    <contour>
      <point x="35" y="0" type="line"/>
      <point x="677" y="0" type="line"/>
      <point x="677" y="29" type="line"/>
      <point x="376" y="705" type="line"/>
      <point x="336" y="705" type="line"/>
      <point x="35" y="29" type="line"/>
    </contour>
    <contour>
      <point x="355" y="649" type="line"/>
      <point x="357" y="649" type="line"/>
      <point x="642" y="8" type="line"/>
      <point x="642" y="39" type="line"/>
      <point x="70" y="39" type="line"/>
      <point x="70" y="8" type="line"/>
    </contour>
  </outline>
</glyph>
<glyph name="Dje-cy" format="2">
  <advance width="832"/>
  <unicode hex="0402"/>
  <outline>
    <contour>
      <point x="576" y="-188" type="curve" smooth="yes"/>
      <point x="701" y="-188"/>
      <point x="770" y="-109"/>
      <point x="770" y="41" type="curve" smooth="yes"/>
      <point x="770" y="148" type="line" smooth="yes"/>
      <point x="770" y="334"/>
      <point x="681" y="429"/>
      <point x="501" y="429" type="curve" smooth="yes"/>
      <point x="427" y="429"/>
      <point x="357" y="413"/>
      <point x="314" y="387" type="curve"/>
      <point x="314" y="666" type="line"/>
      <point x="576" y="666" type="line"/>
      <point x="576" y="705" type="line"/>
      <point x="10" y="705" type="line"/>
      <point x="10" y="666" type="line"/>
      <point x="272" y="666" type="line"/>
      <point x="272" y="0" type="line"/>
      <point x="314" y="0" type="line"/>
      <point x="314" y="342" type="line"/>
      <point x="364" y="373"/>
      <point x="424" y="388"/>
      <point x="499" y="388" type="curve" smooth="yes"/>
      <point x="657" y="388"/>
      <point x="728" y="309"/>
      <point x="728" y="142" type="curve" smooth="yes"/>
      <point x="728" y="41" type="line" smooth="yes"/>
      <point x="728" y="-87"/>
      <point x="676" y="-149"/>
      <point x="576" y="-149" type="curve" smooth="yes"/>
      <point x="536" y="-149"/>
      <point x="502" y="-143"/>
      <point x="475" y="-130" type="curve"/>
      <point x="462" y="-167" type="line"/>
      <point x="489" y="-179"/>
      <point x="532" y="-188"/>
    </contour>
  </outline>
</glyph>
<glyph name="Dzhe-cy" format="2">
  <advance width="759"/>
  <unicode hex="040F"/>
  <outline>
    <contour>
      <point x="359" y="-150" type="line"/>
      <point x="400" y="-150" type="line"/>
      <point x="400" y="0" type="line"/>
      <point x="662" y="0" type="line"/>
      <point x="662" y="705" type="line"/>
      <point x="620" y="705" type="line"/>
      <point x="620" y="39" type="line"/>
      <point x="139" y="39" type="line"/>
      <point x="139" y="705" type="line"/>
      <point x="97" y="705" type="line"/>
      <point x="97" y="0" type="line"/>
      <point x="359" y="0" type="line"/>
    </contour>
  </outline>
</glyph>
<glyph name="Be-cy" format="2">
  <advance width="666"/>
  <unicode hex="0411"/>
  <outline>
    <contour>
      <point x="97" y="0" type="line"/>
      <point x="378" y="0" type="line" smooth="yes"/>
      <point x="528" y="0"/>
      <point x="612" y="64"/>
      <point x="612" y="191" type="curve" smooth="yes"/>
      <point x="612" y="318"/>
      <point x="528" y="379"/>
      <point x="378" y="379" type="curve" smooth="yes"/>
      <point x="139" y="379" type="line"/>
      <point x="139" y="666" type="line"/>
      <point x="546" y="666" type="line"/>
      <point x="546" y="705" type="line"/>
      <point x="97" y="705" type="line"/>
    </contour>
    <contour>
      <point x="139" y="39" type="line"/>
      <point x="139" y="340" type="line"/>
      <point x="377" y="340" type="line" smooth="yes"/>
      <point x="505" y="340"/>
      <point x="567" y="292"/>
      <point x="567" y="190" type="curve" smooth="yes"/>
      <point x="567" y="88"/>
      <point x="505" y="39"/>
      <point x="377" y="39" type="curve" smooth="yes"/>
    </contour>
  </outline>
</glyph>
<glyph name="De-cy" format="2">
  <advance width="785"/>
  <unicode hex="0414"/>
  <outline>
    <contour>
      <point x="19" y="-150" type="line"/>
      <point x="60" y="-150" type="line"/>
      <point x="60" y="0" type="line"/>
      <point x="721" y="0" type="line"/>
      <point x="721" y="-150" type="line"/>
      <point x="762" y="-150" type="line"/>
      <point x="762" y="39" type="line"/>
      <point x="658" y="39" type="line"/>
      <point x="658" y="705" type="line"/>
      <point x="204" y="705" type="line"/>
      <point x="204" y="525" type="line" smooth="yes"/>
      <point x="204" y="287"/>
      <point x="168" y="133"/>
      <point x="90" y="39" type="curve"/>
      <point x="19" y="39" type="line"/>
    </contour>
    <contour>
      <point x="137" y="39" type="line"/>
      <point x="211" y="142"/>
      <point x="244" y="289"/>
      <point x="244" y="525" type="curve" smooth="yes"/>
      <point x="244" y="666" type="line"/>
      <point x="616" y="666" type="line"/>
      <point x="616" y="39" type="line"/>
    </contour>
  </outline>
</glyph>
<glyph name="U-cy" format="2">
  <advance width="648"/>
  <unicode hex="0423"/>
  <anchor x="325" y="705" name="top"/>
  <outline>
    <contour>
      <point x="220" y="0" type="line"/>
      <point x="266" y="0" type="line"/>
      <point x="643" y="705" type="line"/>
      <point x="598.01" y="705" type="line"/>
      <point x="350" y="239" type="line"/>
      <point x="362" y="239" type="line"/>
      <point x="58" y="705" type="line"/>
      <point x="10" y="705" type="line"/>
      <point x="341" y="198" type="line"/>
      <point x="340" y="223" type="line"/>
    </contour>
  </outline>
</glyph>
<glyph name="Che-cy" format="2">
  <advance width="674"/>
  <unicode hex="0427"/>
  <anchor x="535" y="0" name="bottomright"/>
  <anchor x="311" y="295" name="center"/>
  <anchor x="314" y="705" name="top"/>
  <outline>
    <contour>
      <point x="535" y="0" type="line"/>
      <point x="577" y="0" type="line"/>
      <point x="577" y="705" type="line"/>
      <point x="535" y="705" type="line"/>
      <point x="535" y="364" type="line"/>
      <point x="477" y="330"/>
      <point x="410" y="317"/>
      <point x="338" y="317" type="curve" smooth="yes"/>
      <point x="182" y="317"/>
      <point x="104" y="394"/>
      <point x="104" y="563" type="curve" smooth="yes"/>
      <point x="104" y="705" type="line"/>
      <point x="62" y="705" type="line"/>
      <point x="62" y="557" type="line" smooth="yes"/>
      <point x="62" y="371"/>
      <point x="157" y="276"/>
      <point x="337" y="276" type="curve" smooth="yes"/>
      <point x="409" y="276"/>
      <point x="487" y="290"/>
      <point x="535" y="318" type="curve"/>
    </contour>
  </outline>
</glyph>
<glyph name="Shcha-cy" format="2">
  <advance width="1097"/>
  <unicode hex="0429"/>
  <outline>
    <contour>
      <point x="1033" y="-150" type="line"/>
      <point x="1074" y="-150" type="line"/>
      <point x="1074" y="39" type="line"/>
      <point x="971" y="39" type="line"/>
      <point x="971" y="705" type="line"/>
      <point x="929" y="705" type="line"/>
      <point x="929" y="39" type="line"/>
      <point x="555" y="39" type="line"/>
      <point x="555" y="705" type="line"/>
      <point x="513" y="705" type="line"/>
      <point x="513" y="39" type="line"/>
      <point x="139" y="39" type="line"/>
      <point x="139" y="705" type="line"/>
      <point x="97" y="705" type="line"/>
      <point x="97" y="0" type="line"/>
      <point x="1033" y="0" type="line"/>
    </contour>
  </outline>
</glyph>
<glyph name="Hardsign-cy" format="2">
  <advance width="809"/>
  <unicode hex="042A"/>
  <outline>
    <contour>
      <point x="240" y="0" type="line"/>
      <point x="521" y="0" type="line" smooth="yes"/>
      <point x="672" y="0"/>
      <point x="755" y="64"/>
      <point x="755" y="191" type="curve" smooth="yes"/>
      <point x="755" y="318"/>
      <point x="672" y="379"/>
      <point x="521" y="379" type="curve" smooth="yes"/>
      <point x="282" y="379" type="line"/>
      <point x="282" y="705" type="line"/>
      <point x="10" y="705" type="line"/>
      <point x="10" y="666" type="line"/>
      <point x="240" y="666" type="line"/>
    </contour>
    <contour>
      <point x="282" y="39" type="line"/>
      <point x="282" y="340" type="line"/>
      <point x="520" y="340" type="line" smooth="yes"/>
      <point x="648" y="340"/>
      <point x="711" y="292"/>
      <point x="711" y="190" type="curve" smooth="yes"/>
      <point x="711" y="88"/>
      <point x="648" y="39"/>
      <point x="520" y="39" type="curve" smooth="yes"/>
    </contour>
  </outline>
</glyph>
<glyph name="Iu-cy" format="2">
  <advance width="1012"/>
  <unicode hex="042E"/>
  <outline>
    <contour>
      <point x="633" y="-8" type="curve" smooth="yes"/>
      <point x="825" y="-8"/>
      <point x="944" y="130"/>
      <point x="944" y="353" type="curve" smooth="yes"/>
      <point x="944" y="576"/>
      <point x="826" y="713"/>
      <point x="633" y="713" type="curve" smooth="yes"/>
      <point x="447" y="713"/>
      <point x="332" y="586"/>
      <point x="322" y="377" type="curve"/>
      <point x="139" y="377" type="line"/>
      <point x="139" y="705" type="line"/>
      <point x="97" y="705" type="line"/>
      <point x="97" y="0" type="line"/>
      <point x="139" y="0" type="line"/>
      <point x="139" y="338" type="line"/>
      <point x="322" y="338" type="line"/>
      <point x="327" y="124"/>
      <point x="445" y="-8"/>
    </contour>
    <contour>
      <point x="633" y="33" type="curve" smooth="yes"/>
      <point x="464" y="33"/>
      <point x="367" y="151"/>
      <point x="367" y="353" type="curve" smooth="yes"/>
      <point x="367" y="555"/>
      <point x="464" y="672"/>
      <point x="633" y="672" type="curve" smooth="yes"/>
      <point x="803" y="672"/>
      <point x="899" y="556"/>
      <point x="899" y="353" type="curve" smooth="yes"/>
      <point x="899" y="150"/>
      <point x="802" y="33"/>
    </contour>
  </outline>
</glyph>
<glyph name="be-cy" format="2">
  <advance width="559"/>
  <unicode hex="0431"/>
  <outline>
    <contour>
      <point x="280" y="-8" type="curve" smooth="yes"/>
      <point x="416" y="-8"/>
      <point x="502" y="90"/>
      <point x="502" y="250" type="curve" smooth="yes"/>
      <point x="502" y="410"/>
      <point x="416" y="508"/>
      <point x="282" y="508" type="curve" smooth="yes"/>
      <point x="193" y="508"/>
      <point x="115" y="459"/>
      <point x="90" y="367" type="curve"/>
      <point x="99" y="367" type="line"/>
      <point x="99" y="396" type="line" smooth="yes"/>
      <point x="99" y="511"/>
      <point x="155" y="619"/>
      <point x="273" y="651" type="curve" smooth="yes"/>
      <point x="471" y="705" type="line"/>
      <point x="455" y="743" type="line"/>
      <point x="273" y="692" type="line" smooth="yes"/>
      <point x="120" y="649"/>
      <point x="57" y="536"/>
      <point x="57" y="355" type="curve" smooth="yes"/>
      <point x="57" y="265" type="line" smooth="yes"/>
      <point x="57" y="88"/>
      <point x="143" y="-8"/>
    </contour>
    <contour>
      <point x="279" y="31" type="curve" smooth="yes"/>
      <point x="168" y="31"/>
      <point x="99" y="107"/>
      <point x="99" y="258" type="curve" smooth="yes"/>
      <point x="99" y="392"/>
      <point x="169" y="469"/>
      <point x="279" y="469" type="curve" smooth="yes"/>
      <point x="390" y="469"/>
      <point x="459" y="392"/>
      <point x="459" y="250" type="curve" smooth="yes"/>
      <point x="459" y="107"/>
      <point x="390" y="31"/>
    </contour>
  </outline>
</glyph>
<glyph name="ve-cy" format="2">
  <advance width="540"/>
  <unicode hex="0432"/>
  <outline>
    <contour>
      <point x="88" y="0" type="line"/>
      <point x="314" y="0" type="line" smooth="yes"/>
      <point x="422" y="0"/>
      <point x="487" y="52"/>
      <point x="487" y="137" type="curve" smooth="yes"/>
      <point x="487" y="209"/>
      <point x="429" y="260"/>
      <point x="349" y="260" type="curve"/>
      <point x="349" y="249" type="line"/>
      <point x="421" y="254"/>
      <point x="472" y="303"/>
      <point x="472" y="368" type="curve" smooth="yes"/>
      <point x="472" y="456"/>
      <point x="413" y="500"/>
      <point x="306" y="500" type="curve" smooth="yes"/>
      <point x="88" y="500" type="line"/>
    </contour>
    <contour>
      <point x="130" y="36" type="line"/>
      <point x="130" y="236" type="line"/>
      <point x="318" y="236" type="line" smooth="yes"/>
      <point x="399" y="236"/>
      <point x="444" y="201"/>
      <point x="444" y="136" type="curve" smooth="yes"/>
      <point x="444" y="72"/>
      <point x="399" y="36"/>
      <point x="318" y="36" type="curve" smooth="yes"/>
    </contour>
    <contour>
      <point x="130" y="272" type="line"/>
      <point x="130" y="464" type="line"/>
      <point x="309" y="464" type="line" smooth="yes"/>
      <point x="385" y="464"/>
      <point x="429" y="429"/>
      <point x="429" y="368" type="curve" smooth="yes"/>
      <point x="429" y="308"/>
      <point x="385" y="272"/>
      <point x="309" y="272" type="curve" smooth="yes"/>
    </contour>
  </outline>
</glyph>
<glyph name="ii-cy" format="2">
  <advance width="578"/>
  <unicode hex="0438"/>
  <anchor x="451" y="0" name="bottomright"/>
  <anchor x="289" y="484" name="top"/>
  <outline>
    <contour>
      <point x="88" y="0" type="line"/>
      <point x="126" y="0" type="line"/>
      <point x="475" y="468" type="line"/>
      <point x="451" y="468" type="line"/>
      <point x="451" y="0" type="line"/>
      <point x="490" y="0" type="line"/>
      <point x="490" y="500" type="line"/>
      <point x="452" y="500" type="line"/>
      <point x="104" y="32" type="line"/>
      <point x="127" y="32" type="line"/>
      <point x="127" y="500" type="line"/>
      <point x="88" y="500" type="line"/>
    </contour>
  </outline>
</glyph>
<glyph name="en-cy" format="2">
  <advance width="580"/>
  <unicode hex="043D"/>
  <anchor x="451" y="0" name="bottomright"/>
  <outline>
    <contour>
      <point x="88" y="0" type="line"/>
      <point x="130" y="0" type="line"/>
      <point x="130" y="241" type="line"/>
      <point x="450" y="241" type="line"/>
      <point x="450" y="0" type="line"/>
      <point x="492" y="0" type="line"/>
      <point x="492" y="500" type="line"/>
      <point x="450" y="500" type="line"/>
      <point x="450" y="278" type="line"/>
      <point x="130" y="278" type="line"/>
      <point x="130" y="500" type="line"/>
      <point x="88" y="500" type="line"/>
    </contour>
  </outline>
</glyph>
<glyph name="pe-cy" format="2">
  <advance width="577"/>
  <unicode hex="043F"/>
  <anchor x="448" y="0" name="bottomright"/>
  <outline>
    <contour>
      <point x="88" y="0" type="line"/>
      <point x="130" y="0" type="line"/>
      <point x="130" y="464" type="line"/>
      <point x="447" y="464" type="line"/>
      <point x="447" y="0" type="line"/>
      <point x="489" y="0" type="line"/>
      <point x="489" y="500" type="line"/>
      <point x="88" y="500" type="line"/>
    </contour>
  </outline>
</glyph>
<glyph name="tse-cy" format="2">
  <advance width="589"/>
  <unicode hex="0446"/>
  <outline>
    <contour>
      <point x="518" y="-130" type="line"/>
      <point x="555" y="-130" type="line"/>
      <point x="555" y="36" type="line"/>
      <point x="478" y="36" type="line"/>
      <point x="478" y="500" type="line"/>
      <point x="437" y="500" type="line"/>
      <point x="437" y="36" type="line"/>
      <point x="130" y="36" type="line"/>
      <point x="130" y="500" type="line"/>
      <point x="88" y="500" type="line"/>
      <point x="88" y="0" type="line"/>
      <point x="518" y="0" type="line"/>
    </contour>
  </outline>
</glyph>
<glyph name="shcha-cy" format="2">
  <advance width="811"/>
  <unicode hex="0449"/>
  <outline>
    <contour>
      <point x="740" y="-130" type="line"/>
      <point x="777" y="-130" type="line"/>
      <point x="777" y="36" type="line"/>
      <point x="701" y="36" type="line"/>
      <point x="701" y="500" type="line"/>
      <point x="658" y="500" type="line"/>
      <point x="658" y="36" type="line"/>
      <point x="415" y="36" type="line"/>
      <point x="415" y="500" type="line"/>
      <point x="373" y="500" type="line"/>
      <point x="373" y="36" type="line"/>
      <point x="130" y="36" type="line"/>
      <point x="130" y="500" type="line"/>
      <point x="88" y="500" type="line"/>
      <point x="88" y="0" type="line"/>
      <point x="740" y="0" type="line"/>
    </contour>
  </outline>
</glyph>
<glyph name="hardsign-cy" format="2">
  <advance width="615"/>
  <unicode hex="044A"/>
  <outline>
    <contour>
      <point x="169" y="0" type="line"/>
      <point x="378" y="0" type="line" smooth="yes"/>
      <point x="503" y="0"/>
      <point x="567" y="56"/>
      <point x="567" y="155" type="curve" smooth="yes"/>
      <point x="567" y="253"/>
      <point x="503" y="309"/>
      <point x="378" y="309" type="curve" smooth="yes"/>
      <point x="210" y="309" type="line"/>
      <point x="210" y="500" type="line"/>
      <point x="3" y="500" type="line"/>
      <point x="3" y="464" type="line"/>
      <point x="169" y="464" type="line"/>
    </contour>
    <contour>
      <point x="210" y="36" type="line"/>
      <point x="210" y="273" type="line"/>
      <point x="381" y="273" type="line" smooth="yes"/>
      <point x="473" y="273"/>
      <point x="524" y="236"/>
      <point x="524" y="155" type="curve" smooth="yes"/>
      <point x="524" y="73"/>
      <point x="473" y="36"/>
      <point x="381" y="36" type="curve" smooth="yes"/>
    </contour>
  </outline>
</glyph>
<glyph name="ia-cy" format="2">
  <advance width="531"/>
  <unicode hex="044F"/>
  <outline>
    <contour>
      <point x="50" y="0" type="line"/>
      <point x="97" y="0" type="line"/>
      <point x="167" y="122" type="line" smooth="yes"/>
      <point x="196" y="173"/>
      <point x="240" y="208"/>
      <point x="309" y="208" type="curve" smooth="yes"/>
      <point x="401" y="208" type="line"/>
      <point x="401" y="0" type="line"/>
      <point x="443" y="0" type="line"/>
      <point x="443" y="500" type="line"/>
      <point x="245" y="500" type="line" smooth="yes"/>
      <point x="129" y="500"/>
      <point x="71" y="445"/>
      <point x="71" y="355" type="curve" smooth="yes"/>
      <point x="71" y="262"/>
      <point x="138" y="209"/>
      <point x="245" y="209" type="curve"/>
      <point x="246" y="216" type="line"/>
      <point x="239" y="216" type="line" smooth="yes"/>
      <point x="197" y="216"/>
      <point x="157" y="186"/>
      <point x="132" y="142" type="curve" smooth="yes"/>
    </contour>
    <contour>
      <point x="249" y="244" type="line" smooth="yes"/>
      <point x="157" y="244"/>
      <point x="113" y="284"/>
      <point x="113" y="355" type="curve" smooth="yes"/>
      <point x="113" y="424"/>
      <point x="157" y="465"/>
      <point x="249" y="465" type="curve" smooth="yes"/>
      <point x="401" y="465" type="line"/>
      <point x="401" y="244" type="line"/>
    </contour>
  </outline>
</glyph>
<glyph name="nje-cy" format="2">
  <advance width="897"/>
  <unicode hex="045A"/>
  <outline>
    <contour>
      <point x="88" y="0" type="line"/>
      <point x="130" y="0" type="line"/>
      <point x="130" y="241" type="line"/>
      <point x="451" y="241" type="line"/>
      <point x="451" y="0" type="line"/>
      <point x="660" y="0" type="line" smooth="yes"/>
      <point x="785" y="0"/>
      <point x="849" y="56"/>
      <point x="849" y="155" type="curve" smooth="yes"/>
      <point x="849" y="253"/>
      <point x="785" y="309"/>
      <point x="660" y="309" type="curve" smooth="yes"/>
      <point x="492" y="309" type="line"/>
      <point x="492" y="500" type="line"/>
      <point x="451" y="500" type="line"/>
      <point x="451" y="278" type="line"/>
      <point x="130" y="278" type="line"/>
      <point x="130" y="500" type="line"/>
      <point x="88" y="500" type="line"/>
    </contour>
    <contour>
      <point x="492" y="36" type="line"/>
      <point x="492" y="273" type="line"/>
      <point x="662" y="273" type="line" smooth="yes"/>
      <point x="755" y="273"/>
      <point x="805" y="236"/>
      <point x="805" y="155" type="curve" smooth="yes"/>
      <point x="805" y="73"/>
      <point x="755" y="36"/>
      <point x="662" y="36" type="curve" smooth="yes"/>
    </contour>
  </outline>
</glyph>
<glyph name="Yat-cy" format="2">
  <advance width="729"/>
  <unicode hex="0462"/>
  <outline>
    <contour>
      <point x="160" y="0" type="line"/>
      <point x="441" y="0" type="line" smooth="yes"/>
      <point x="592" y="0"/>
      <point x="675" y="64"/>
      <point x="675" y="191" type="curve" smooth="yes"/>
      <point x="675" y="318"/>
      <point x="592" y="379"/>
      <point x="441" y="379" type="curve" smooth="yes"/>
      <point x="202" y="379" type="line"/>
      <point x="202" y="548" type="line"/>
      <point x="450" y="548" type="line"/>
      <point x="450" y="587" type="line"/>
      <point x="202" y="587" type="line"/>
      <point x="202" y="705" type="line"/>
      <point x="160" y="705" type="line"/>
      <point x="160" y="587" type="line"/>
      <point x="-20" y="587" type="line"/>
      <point x="-20" y="548" type="line"/>
      <point x="160" y="548" type="line"/>
    </contour>
    <contour>
      <point x="202" y="39" type="line"/>
      <point x="202" y="340" type="line"/>
      <point x="441" y="340" type="line" smooth="yes"/>
      <point x="568" y="340"/>
      <point x="631" y="292"/>
      <point x="631" y="190" type="curve" smooth="yes"/>
      <point x="631" y="88"/>
      <point x="568" y="39"/>
      <point x="441" y="39" type="curve" smooth="yes"/>
    </contour>
  </outline>
</glyph>
<glyph name="Izhitsa-cy" format="2">
  <advance width="744"/>
  <unicode hex="0474"/>
  <outline>
    <contour>
      <point x="314" y="0" type="line"/>
      <point x="360" y="0" type="line"/>
      <point x="591" y="533" type="line" smooth="yes"/>
      <point x="640" y="645"/>
      <point x="683" y="677"/>
      <point x="775" y="677" type="curve"/>
      <point x="770" y="713" type="line"/>
      <point x="653" y="713"/>
      <point x="604" y="667"/>
      <point x="547" y="534" type="curve" smooth="yes"/>
      <point x="327" y="24" type="line"/>
      <point x="349" y="24" type="line"/>
      <point x="57" y="705" type="line"/>
      <point x="12" y="705" type="line"/>
    </contour>
  </outline>
</glyph>
<glyph name="izhitsa-cy" format="2">
  <advance width="547"/>
  <unicode hex="0475"/>
  <outline>
    <contour>
      <point x="239" y="0" type="line"/>
      <point x="287" y="0" type="line"/>
      <point x="447" y="377" type="line" smooth="yes"/>
      <point x="477" y="448"/>
      <point x="502" y="471"/>
      <point x="568" y="473" type="curve"/>
      <point x="564" y="508" type="line"/>
      <point x="483" y="508"/>
      <point x="444" y="481"/>
      <point x="410" y="398" type="curve" smooth="yes"/>
      <point x="251" y="16" type="line"/>
      <point x="275" y="16" type="line"/>
      <point x="75" y="500" type="line"/>
      <point x="27" y="500" type="line"/>
    </contour>
  </outline>
</glyph>
<glyph name="Semisoftsign-cy" format="2">
  <advance width="718"/>
  <unicode hex="048C"/>
  <outline>
    <contour>
      <point x="149" y="0" type="line"/>
      <point x="427.996" y="0" type="line" smooth="yes"/>
      <point x="579" y="0"/>
      <point x="664" y="64"/>
      <point x="664" y="191" type="curve" smooth="yes"/>
      <point x="664" y="318"/>
      <point x="579" y="379"/>
      <point x="428" y="379" type="curve" smooth="yes"/>
      <point x="191" y="379" type="line"/>
      <point x="191" y="549" type="line"/>
      <point x="339" y="549" type="line"/>
      <point x="339" y="587" type="line"/>
      <point x="191" y="587" type="line"/>
      <point x="191" y="705" type="line"/>
      <point x="149" y="705" type="line"/>
      <point x="149" y="587" type="line"/>
      <point x="0" y="587" type="line"/>
      <point x="0" y="549" type="line"/>
      <point x="149" y="549" type="line"/>
    </contour>
    <contour>
      <point x="191" y="39" type="line"/>
      <point x="191" y="340" type="line"/>
      <point x="427" y="340" type="line" smooth="yes"/>
      <point x="555" y="340"/>
      <point x="620" y="291"/>
      <point x="620" y="190" type="curve" smooth="yes"/>
      <point x="620" y="88"/>
      <point x="555" y="39"/>
      <point x="427" y="39" type="curve" smooth="yes"/>
    </contour>
  </outline>
</glyph>
<glyph name="Gheupturn-cy" format="2">
  <advance width="541"/>
  <unicode hex="0490"/>
  <outline>
    <contour>
      <point x="97" y="0" type="line"/>
      <point x="139" y="0" type="line"/>
      <point x="139" y="666" type="line"/>
      <point x="528" y="666" type="line"/>
      <point x="528" y="855" type="line"/>
      <point x="487" y="855" type="line"/>
      <point x="487" y="705" type="line"/>
      <point x="97" y="705" type="line"/>
    </contour>
  </outline>
</glyph>
<glyph name="Ghemiddlehook-cy" format="2">
  <advance width="657"/>
  <unicode hex="0494"/>
  <outline>
    <contour>
      <point x="401" y="-188" type="curve" smooth="yes"/>
      <point x="526" y="-188"/>
      <point x="595" y="-108"/>
      <point x="595" y="43" type="curve" smooth="yes"/>
      <point x="595" y="148" type="line" smooth="yes"/>
      <point x="595" y="334"/>
      <point x="506" y="429"/>
      <point x="326" y="429" type="curve" smooth="yes"/>
      <point x="252" y="429"/>
      <point x="181" y="413"/>
      <point x="138" y="387" type="curve"/>
      <point x="138" y="666" type="line"/>
      <point x="524" y="666" type="line"/>
      <point x="524" y="705" type="line"/>
      <point x="97" y="705" type="line"/>
      <point x="97" y="0" type="line"/>
      <point x="138" y="0" type="line"/>
      <point x="138" y="342" type="line"/>
      <point x="188" y="373"/>
      <point x="249" y="388"/>
      <point x="324" y="388" type="curve" smooth="yes"/>
      <point x="482" y="388"/>
      <point x="553" y="310"/>
      <point x="553" y="142" type="curve" smooth="yes"/>
      <point x="553" y="42" type="line" smooth="yes"/>
      <point x="553" y="-86"/>
      <point x="500" y="-150"/>
      <point x="401" y="-150" type="curve" smooth="yes"/>
      <point x="361" y="-150"/>
      <point x="328" y="-144"/>
      <point x="301" y="-131" type="curve"/>
      <point x="301" y="-173" type="line"/>
      <point x="324" y="-182"/>
      <point x="365" y="-188"/>
    </contour>
  </outline>
</glyph>
<glyph name="Kaverticalstroke-cy" format="2">
  <advance width="637"/>
  <unicode hex="049C"/>
  <outline>
    <contour>
      <point x="97" y="0" type="line"/>
      <point x="139" y="0" type="line"/>
      <point x="139" y="339" type="line"/>
      <point x="224" y="339" type="line"/>
      <point x="224" y="168" type="line"/>
      <point x="260" y="168" type="line"/>
      <point x="260" y="347" type="line"/>
      <point x="252" y="339" type="line"/>
      <point x="286" y="339" type="line" smooth="yes"/>
      <point x="369" y="339"/>
      <point x="424" y="303"/>
      <point x="469" y="210" type="curve" smooth="yes"/>
      <point x="573" y="0" type="line"/>
      <point x="620" y="0" type="line"/>
      <point x="499" y="239" type="line" smooth="yes"/>
      <point x="456" y="323"/>
      <point x="400" y="370"/>
      <point x="321" y="376" type="curve"/>
      <point x="334" y="359" type="line"/>
      <point x="579" y="705" type="line"/>
      <point x="529" y="705" type="line"/>
      <point x="299" y="378" type="line"/>
      <point x="260" y="378" type="line"/>
      <point x="260" y="549" type="line"/>
      <point x="224" y="549" type="line"/>
      <point x="224" y="378" type="line"/>
      <point x="139" y="378" type="line"/>
      <point x="139" y="705" type="line"/>
      <point x="97" y="705" type="line"/>
    </contour>
  </outline>
</glyph>
<glyph name="kabashkir-cy" format="2">
  <advance width="590"/>
  <unicode hex="04A1"/>
  <outline>
    <contour>
      <point x="169" y="0" type="line"/>
      <point x="211" y="0" type="line"/>
      <point x="211" y="242" type="line"/>
      <point x="304" y="242" type="line" smooth="yes"/>
      <point x="371" y="242"/>
      <point x="397" y="225"/>
      <point x="438" y="159" type="curve" smooth="yes"/>
      <point x="536" y="0" type="line"/>
      <point x="583" y="0" type="line"/>
      <point x="481" y="164" type="line" smooth="yes"/>
      <point x="426" y="252"/>
      <point x="402" y="270"/>
      <point x="343" y="277" type="curve"/>
      <point x="362" y="265" type="line"/>
      <point x="554" y="500" type="line"/>
      <point x="505" y="500" type="line"/>
      <point x="323" y="277" type="line"/>
      <point x="211" y="277" type="line"/>
      <point x="211" y="500" type="line"/>
      <point x="3" y="500" type="line"/>
      <point x="3" y="464" type="line"/>
      <point x="169" y="464" type="line"/>
    </contour>
  </outline>
</glyph>
<glyph name="Haabkhasian-cy" format="2">
  <advance width="805"/>
  <unicode hex="04A8"/>
  <outline>
    <contour>
      <point x="393" y="-8" type="curve" smooth="yes"/>
      <point x="587" y="-8"/>
      <point x="718" y="134"/>
      <point x="718" y="332" type="curve" smooth="yes"/>
      <point x="718" y="475"/>
      <point x="648" y="561"/>
      <point x="532" y="561" type="curve" smooth="yes"/>
      <point x="417" y="561"/>
      <point x="345" y="475"/>
      <point x="345" y="332" type="curve" smooth="yes"/>
      <point x="345" y="127"/>
      <point x="476" y="-8"/>
      <point x="676" y="-8" type="curve" smooth="yes"/>
      <point x="737" y="-8"/>
      <point x="784" y="2"/>
      <point x="818" y="23" type="curve"/>
      <point x="806" y="65" type="line"/>
      <point x="769" y="45"/>
      <point x="729" y="33"/>
      <point x="677" y="33" type="curve" smooth="yes"/>
      <point x="500" y="33"/>
      <point x="388" y="155"/>
      <point x="388" y="333" type="curve" smooth="yes"/>
      <point x="388" y="450"/>
      <point x="443" y="517"/>
      <point x="532" y="517" type="curve" smooth="yes"/>
      <point x="620" y="517"/>
      <point x="675" y="450"/>
      <point x="675" y="333" type="curve" smooth="yes"/>
      <point x="675" y="154"/>
      <point x="564" y="33"/>
      <point x="387" y="33" type="curve" smooth="yes"/>
      <point x="212" y="33"/>
      <point x="113" y="150"/>
      <point x="113" y="353" type="curve" smooth="yes"/>
      <point x="113" y="555"/>
      <point x="213" y="670"/>
      <point x="385" y="670" type="curve" smooth="yes"/>
      <point x="402" y="670"/>
      <point x="424" y="667"/>
      <point x="450" y="664" type="curve"/>
      <point x="460" y="706" type="line"/>
      <point x="444" y="710"/>
      <point x="418" y="713"/>
      <point x="385" y="713" type="curve" smooth="yes"/>
      <point x="187" y="713"/>
      <point x="68" y="579"/>
      <point x="68" y="352" type="curve" smooth="yes"/>
      <point x="68" y="124"/>
      <point x="189" y="-8"/>
    </contour>
  </outline>
</glyph>
<glyph name="Tedescender-cy" format="2">
  <advance width="590"/>
  <unicode hex="04AC"/>
  <outline>
    <contour>
      <point x="376" y="-150" type="line"/>
      <point x="417" y="-150" type="line"/>
      <point x="417" y="39" type="line"/>
      <point x="314" y="39" type="line"/>
      <point x="314" y="666" type="line"/>
      <point x="576" y="666" type="line"/>
      <point x="576" y="705" type="line"/>
      <point x="10" y="705" type="line"/>
      <point x="10" y="666" type="line"/>
      <point x="272" y="666" type="line"/>
      <point x="272" y="0" type="line"/>
      <point x="376" y="0" type="line"/>
    </contour>
  </outline>
</glyph>
<glyph name="Shha-cy" format="2">
  <advance width="674"/>
  <unicode hex="04BA"/>
  <anchor x="570" y="0" name="bottomright"/>
  <outline>
    <contour>
      <point x="97" y="0" type="line"/>
      <point x="139" y="0" type="line"/>
      <point x="139" y="343" type="line"/>
      <point x="197" y="377"/>
      <point x="264" y="389"/>
      <point x="335" y="389" type="curve" smooth="yes"/>
      <point x="491" y="389"/>
      <point x="570" y="311"/>
      <point x="570" y="142" type="curve" smooth="yes"/>
      <point x="570" y="0" type="line"/>
      <point x="612" y="0" type="line"/>
      <point x="612" y="148" type="line" smooth="yes"/>
      <point x="612" y="334"/>
      <point x="517" y="429"/>
      <point x="336" y="429" type="curve" smooth="yes"/>
      <point x="264" y="429"/>
      <point x="187" y="415"/>
      <point x="139" y="387" type="curve"/>
      <point x="139" y="705" type="line"/>
      <point x="97" y="705" type="line"/>
    </contour>
  </outline>
</glyph>
<glyph name="kahook-cy" format="2">
  <advance width="525"/>
  <unicode hex="04C4"/>
  <outline>
    <contour>
      <point x="294" y="-185" type="line"/>
      <point x="432" y="-157"/>
      <point x="473" y="-85"/>
      <point x="473" y="47" type="curve" smooth="yes"/>
      <point x="473" y="82" type="line" smooth="yes"/>
      <point x="473" y="218"/>
      <point x="395" y="278"/>
      <point x="268" y="278" type="curve"/>
      <point x="278" y="265" type="line"/>
      <point x="473" y="500" type="line"/>
      <point x="424" y="500" type="line"/>
      <point x="242" y="277" type="line"/>
      <point x="130" y="277" type="line"/>
      <point x="130" y="500" type="line"/>
      <point x="88" y="500" type="line"/>
      <point x="88" y="0" type="line"/>
      <point x="130" y="0" type="line"/>
      <point x="130" y="242" type="line"/>
      <point x="272" y="242" type="line" smooth="yes"/>
      <point x="379" y="242"/>
      <point x="431" y="193"/>
      <point x="431" y="78" type="curve" smooth="yes"/>
      <point x="431" y="44" type="line" smooth="yes"/>
      <point x="431" y="-64"/>
      <point x="404" y="-124"/>
      <point x="285" y="-148" type="curve"/>
    </contour>
  </outline>
</glyph>
<glyph name="Enhook-cy" format="2">
  <advance width="759"/>
  <unicode hex="04C7"/>
  <outline>
    <contour>
      <point x="529" y="-186" type="curve" smooth="yes"/>
      <point x="617" y="-186"/>
      <point x="662" y="-127"/>
      <point x="662" y="-26" type="curve" smooth="yes"/>
      <point x="662" y="705" type="line"/>
      <point x="620" y="705" type="line"/>
      <point x="620" y="377" type="line"/>
      <point x="139" y="377" type="line"/>
      <point x="139" y="705" type="line"/>
      <point x="97" y="705" type="line"/>
      <point x="97" y="0" type="line"/>
      <point x="139" y="0" type="line"/>
      <point x="139" y="338" type="line"/>
      <point x="620" y="338" type="line"/>
      <point x="620" y="-26" type="line" smooth="yes"/>
      <point x="620" y="-112"/>
      <point x="584" y="-148"/>
      <point x="523" y="-148" type="curve" smooth="yes"/>
      <point x="504" y="-148"/>
      <point x="484" y="-145"/>
      <point x="459" y="-139" type="curve"/>
      <point x="459" y="-178" type="line"/>
      <point x="484" y="-184"/>
      <point x="508" y="-186"/>
    </contour>
  </outline>
</glyph>
<glyph name="enhook-cy" format="2">
  <advance width="580"/>
  <unicode hex="04C8"/>
  <outline>
    <contour>
      <point x="302" y="-193" type="line"/>
      <point x="346" y="-190" type="line" smooth="yes"/>
      <point x="439" y="-184"/>
      <point x="492" y="-123"/>
      <point x="492" y="-21" type="curve" smooth="yes"/>
      <point x="492" y="500" type="line"/>
      <point x="451" y="500" type="line"/>
      <point x="451" y="278" type="line"/>
      <point x="130" y="278" type="line"/>
      <point x="130" y="500" type="line"/>
      <point x="88" y="500" type="line"/>
      <point x="88" y="0" type="line"/>
      <point x="130" y="0" type="line"/>
      <point x="130" y="241" type="line"/>
      <point x="451" y="241" type="line"/>
      <point x="451" y="-22" type="line" smooth="yes"/>
      <point x="451" y="-102"/>
      <point x="412" y="-147"/>
      <point x="342" y="-152" type="curve" smooth="yes"/>
      <point x="299" y="-155" type="line"/>
    </contour>
  </outline>
</glyph>
<glyph name="gestrokehook-cy" format="2">
  <advance width="445"/>
  <unicode hex="04FB"/>
  <outline>
    <contour>
      <point x="73" y="-180" type="line"/>
      <point x="107" y="-177" type="line" smooth="yes"/>
      <point x="184" y="-170"/>
      <point x="231" y="-116"/>
      <point x="231" y="0" type="curve" smooth="yes"/>
      <point x="231" y="36" type="line"/>
      <point x="151" y="36" type="line"/>
      <point x="151" y="234" type="line"/>
      <point x="306" y="234" type="line"/>
      <point x="306" y="270" type="line"/>
      <point x="151" y="270" type="line"/>
      <point x="151" y="464" type="line"/>
      <point x="433" y="464" type="line"/>
      <point x="433" y="500" type="line"/>
      <point x="109" y="500" type="line"/>
      <point x="109" y="270" type="line"/>
      <point x="5" y="270" type="line"/>
      <point x="5" y="234" type="line"/>
      <point x="109" y="234" type="line"/>
      <point x="109" y="0" type="line"/>
      <point x="193" y="0" type="line"/>
      <point x="193" y="-91"/>
      <point x="167" y="-133"/>
      <point x="105" y="-139" type="curve" smooth="yes"/>
      <point x="71" y="-143" type="line"/>
    </contour>
  </outline>
</glyph>
<glyph name="Hahook-cy" format="2">
  <advance width="636"/>
  <unicode hex="04FC"/>
  <outline>
    <contour>
      <point x="412" y="-183" type="line"/>
      <point x="527" y="-170"/>
      <point x="582" y="-120"/>
      <point x="582" y="-26" type="curve" smooth="yes"/>
      <point x="582" y="22"/>
      <point x="557" y="74"/>
      <point x="507" y="141" type="curve" smooth="yes"/>
      <point x="339" y="367" type="line"/>
      <point x="339" y="357" type="line"/>
      <point x="597" y="705" type="line"/>
      <point x="546" y="705" type="line"/>
      <point x="314" y="387" type="line"/>
      <point x="326" y="387" type="line"/>
      <point x="90" y="705" type="line"/>
      <point x="39" y="705" type="line"/>
      <point x="298" y="357" type="line"/>
      <point x="298" y="367" type="line"/>
      <point x="24" y="0" type="line"/>
      <point x="75" y="0" type="line"/>
      <point x="329" y="342" type="line"/>
      <point x="308" y="342" type="line"/>
      <point x="464" y="131" type="line" smooth="yes"/>
      <point x="512" y="66"/>
      <point x="540" y="12"/>
      <point x="540" y="-27" type="curve" smooth="yes"/>
      <point x="540" y="-102"/>
      <point x="498" y="-136"/>
      <point x="404" y="-147" type="curve"/>
    </contour>
  </outline>
</glyph>
<glyph name="hahook-cy" format="2">
  <advance width="528"/>
  <unicode hex="04FD"/>
  <outline>
    <contour>
      <point x="337" y="-183" type="line"/>
      <point x="429" y="-174"/>
      <point x="486" y="-129"/>
      <point x="486" y="-52" type="curve" smooth="yes"/>
      <point x="486" y="3"/>
      <point x="460" y="44"/>
      <point x="395" y="125" type="curve" smooth="yes"/>
      <point x="282" y="267" type="line"/>
      <point x="282" y="248" type="line"/>
      <point x="483" y="500" type="line"/>
      <point x="431" y="500" type="line"/>
      <point x="257" y="279" type="line"/>
      <point x="272" y="279" type="line"/>
      <point x="97" y="500" type="line"/>
      <point x="44" y="500" type="line"/>
      <point x="249" y="245" type="line"/>
      <point x="249" y="271" type="line"/>
      <point x="33" y="0" type="line"/>
      <point x="84" y="0" type="line"/>
      <point x="272" y="235" type="line"/>
      <point x="256" y="235" type="line"/>
      <point x="362" y="100" type="line" smooth="yes"/>
      <point x="423" y="23"/>
      <point x="446" y="-11"/>
      <point x="446" y="-52" type="curve" smooth="yes"/>
      <point x="446" y="-110"/>
      <point x="406" y="-138"/>
      <point x="327" y="-148" type="curve"/>
    </contour>
  </outline>
</glyph>
<glyph name="elhook-cy" format="2">
  <advance width="568"/>
  <unicode hex="0513"/>
  <outline>
    <contour>
      <point x="290" y="-193" type="line"/>
      <point x="334" y="-190" type="line" smooth="yes"/>
      <point x="427" y="-184"/>
      <point x="480" y="-123"/>
      <point x="480" y="-21" type="curve" smooth="yes"/>
      <point x="480" y="500" type="line"/>
      <point x="153" y="500" type="line"/>
      <point x="153" y="395" type="line" smooth="yes"/>
      <point x="153" y="156"/>
      <point x="126" y="76"/>
      <point x="26" y="24" type="curve"/>
      <point x="48" y="-9" type="line"/>
      <point x="158" y="48"/>
      <point x="194" y="142"/>
      <point x="194" y="394" type="curve" smooth="yes"/>
      <point x="194" y="464" type="line"/>
      <point x="438" y="464" type="line"/>
      <point x="438" y="-22" type="line" smooth="yes"/>
      <point x="438" y="-102"/>
      <point x="400" y="-147"/>
      <point x="330" y="-152" type="curve" smooth="yes"/>
      <point x="287" y="-155" type="line"/>
    </contour>
  </outline>
</glyph>
<glyph name="enlefthook-cy" format="2">
  <advance width="580"/>
  <unicode hex="0529"/>
  <anchor x="451" y="0" name="bottomright"/>
  <outline>
    <contour>
      <point x="-60" y="-193" type="line"/>
      <point x="-16" y="-190" type="line" smooth="yes"/>
      <point x="77" y="-184"/>
      <point x="130" y="-123"/>
      <point x="130" y="-21" type="curve" smooth="yes"/>
      <point x="130" y="241" type="line"/>
      <point x="451" y="241" type="line"/>
      <point x="451" y="0" type="line"/>
      <point x="492" y="0" type="line"/>
      <point x="492" y="500" type="line"/>
      <point x="451" y="500" type="line"/>
      <point x="451" y="278" type="line"/>
      <point x="130" y="278" type="line"/>
      <point x="130" y="500" type="line"/>
      <point x="88" y="500" type="line"/>
      <point x="88" y="-22" type="line" smooth="yes"/>
      <point x="88" y="-102"/>
      <point x="50" y="-147"/>
      <point x="-20" y="-152" type="curve" smooth="yes"/>
      <point x="-63" y="-155" type="line"/>
    </contour>
  </outline>
</glyph>
<glyph name="daggerdbl" format="2">
  <advance width="304"/>
  <unicode hex="2021"/>
  <outline>
    <contour>
      <point x="135" y="157" type="line"/>
      <point x="169" y="157" type="line"/>
      <point x="169" y="277" type="line"/>
      <point x="284" y="277" type="line"/>
      <point x="284" y="309" type="line"/>
      <point x="169" y="309" type="line"/>
      <point x="169" y="553" type="line"/>
      <point x="284" y="553" type="line"/>
      <point x="284" y="585" type="line"/>
      <point x="169" y="585" type="line"/>
      <point x="169" y="705" type="line"/>
      <point x="135" y="705" type="line"/>
      <point x="135" y="585" type="line"/>
      <point x="20" y="585" type="line"/>
      <point x="20" y="553" type="line"/>
      <point x="135" y="553" type="line"/>
      <point x="135" y="309" type="line"/>
      <point x="20" y="309" type="line"/>
      <point x="20" y="277" type="line"/>
      <point x="135" y="277" type="line"/>
    </contour>
  </outline>
</glyph>
<glyph name="franc" format="2">
  <advance width="600"/>
  <unicode hex="20A3"/>
  <outline>
    <contour>
      <point x="127" y="0" type="line"/>
      <point x="169" y="0" type="line"/>
      <point x="169" y="159" type="line"/>
      <point x="396" y="159" type="line"/>
      <point x="396" y="195" type="line"/>
      <point x="169" y="195" type="line"/>
      <point x="169" y="348" type="line"/>
      <point x="521" y="348" type="line"/>
      <point x="521" y="387" type="line"/>
      <point x="169" y="387" type="line"/>
      <point x="169" y="666" type="line"/>
      <point x="541" y="666" type="line"/>
      <point x="541" y="705" type="line"/>
      <point x="127" y="705" type="line"/>
      <point x="127" y="195" type="line"/>
      <point x="51" y="195" type="line"/>
      <point x="51" y="159" type="line"/>
      <point x="127" y="159" type="line"/>
    </contour>
  </outline>
</glyph>
<glyph name="naira" format="2">
  <advance width="600"/>
  <unicode hex="20A6"/>
  <outline>
    <contour>
      <point x="115" y="0" type="line"/>
      <point x="154" y="0" type="line"/>
      <point x="154" y="649" type="line"/>
      <point x="137" y="649" type="line"/>
      <point x="448" y="0" type="line"/>
      <point x="485" y="0" type="line"/>
      <point x="485" y="259" type="line"/>
      <point x="586" y="259" type="line"/>
      <point x="586" y="295" type="line"/>
      <point x="485" y="295" type="line"/>
      <point x="485" y="409" type="line"/>
      <point x="586" y="409" type="line"/>
      <point x="586" y="445" type="line"/>
      <point x="485" y="445" type="line"/>
      <point x="485" y="705" type="line"/>
      <point x="446" y="705" type="line"/>
      <point x="446" y="56" type="line"/>
      <point x="464" y="56" type="line"/>
      <point x="153" y="705" type="line"/>
      <point x="115" y="705" type="line"/>
      <point x="115" y="445" type="line"/>
      <point x="14" y="445" type="line"/>
      <point x="14" y="409" type="line"/>
      <point x="115" y="409" type="line"/>
      <point x="115" y="295" type="line"/>
      <point x="14" y="295" type="line"/>
      <point x="14" y="259" type="line"/>
      <point x="115" y="259" type="line"/>
    </contour>
  </outline>
</glyph>
<glyph name="euro" format="2">
  <advance width="600"/>
  <unicode hex="20AC"/>
  <outline>
    <contour>
      <point x="385" y="-8" type="curve" smooth="yes"/>
      <point x="467" y="-8"/>
      <point x="536" y="21"/>
      <point x="585" y="87" type="curve"/>
      <point x="564" y="122" type="line"/>
      <point x="520" y="59"/>
      <point x="461" y="33"/>
      <point x="389" y="33" type="curve" smooth="yes"/>
      <point x="272" y="33"/>
      <point x="194" y="112"/>
      <point x="172" y="267" type="curve"/>
      <point x="163" y="260" type="line"/>
      <point x="360" y="260" type="line"/>
      <point x="360" y="296" type="line"/>
      <point x="158" y="296" type="line"/>
      <point x="171" y="284" type="line"/>
      <point x="166" y="325"/>
      <point x="166" y="383"/>
      <point x="171" y="418" type="curve"/>
      <point x="158" y="410" type="line"/>
      <point x="360" y="410" type="line"/>
      <point x="360" y="446" type="line"/>
      <point x="155" y="446" type="line"/>
      <point x="172" y="438" type="line"/>
      <point x="194" y="593"/>
      <point x="272" y="672"/>
      <point x="389" y="672" type="curve" smooth="yes"/>
      <point x="461" y="672"/>
      <point x="520" y="646"/>
      <point x="564" y="583" type="curve"/>
      <point x="585" y="618" type="line"/>
      <point x="536" y="684"/>
      <point x="467" y="713"/>
      <point x="385" y="713" type="curve" smooth="yes"/>
      <point x="244" y="713"/>
      <point x="150" y="613"/>
      <point x="128" y="436" type="curve"/>
      <point x="140" y="446" type="line"/>
      <point x="14" y="446" type="line"/>
      <point x="14" y="410" type="line"/>
      <point x="134" y="410" type="line"/>
      <point x="126" y="417" type="line"/>
      <point x="123" y="382"/>
      <point x="122" y="323"/>
      <point x="126" y="287" type="curve"/>
      <point x="134" y="296" type="line"/>
      <point x="14" y="296" type="line"/>
      <point x="14" y="260" type="line"/>
      <point x="137" y="260" type="line"/>
      <point x="128" y="269" type="line"/>
      <point x="150" y="92"/>
      <point x="244" y="-8"/>
    </contour>
  </outline>
</glyph>
<glyph name="tenge" format="2">
  <advance width="600"/>
  <unicode hex="20B8"/>
  <outline>
    <contour>
      <point x="279" y="0" type="line"/>
      <point x="321" y="0" type="line"/>
      <point x="321" y="519" type="line"/>
      <point x="582" y="519" type="line"/>
      <point x="582" y="555" type="line"/>
      <point x="18" y="555" type="line"/>
      <point x="18" y="519" type="line"/>
      <point x="279" y="519" type="line"/>
    </contour>
    <contour>
      <point x="18" y="669" type="line"/>
      <point x="582" y="669" type="line"/>
      <point x="582" y="705" type="line"/>
      <point x="18" y="705" type="line"/>
    </contour>
  </outline>
</glyph>
<glyph name="manat" format="2">
  <advance width="600"/>
  <unicode hex="20BC"/>
  <outline>
    <contour>
      <point x="73" y="0" type="line"/>
      <point x="114" y="0" type="line"/>
      <point x="114" y="200" type="line" smooth="yes"/>
      <point x="114" y="410"/>
      <point x="167" y="548"/>
      <point x="288" y="550" type="curve"/>
      <point x="280" y="559" type="line"/>
      <point x="280" y="160" type="line"/>
      <point x="320" y="160" type="line"/>
      <point x="320" y="559" type="line"/>
      <point x="312" y="550" type="line"/>
      <point x="433" y="548"/>
      <point x="486" y="410"/>
      <point x="486" y="200" type="curve" smooth="yes"/>
      <point x="486" y="0" type="line"/>
      <point x="527" y="0" type="line"/>
      <point x="527" y="200" type="line" smooth="yes"/>
      <point x="527" y="430"/>
      <point x="466" y="582"/>
      <point x="308" y="590" type="curve"/>
      <point x="320" y="576" type="line"/>
      <point x="320" y="705" type="line"/>
      <point x="280" y="705" type="line"/>
      <point x="280" y="576" type="line"/>
      <point x="292" y="590" type="line"/>
      <point x="134" y="582"/>
      <point x="73" y="430"/>
      <point x="73" y="200" type="curve" smooth="yes"/>
    </contour>
  </outline>
</glyph>
<glyph name="literSign" format="2">
  <advance width="606"/>
  <unicode hex="2113"/>
  <outline>
    <contour>
      <point x="321" y="-8" type="curve" smooth="yes"/>
      <point x="361" y="-8"/>
      <point x="402" y="10"/>
      <point x="434" y="51" type="curve"/>
      <point x="411" y="80" type="line"/>
      <point x="375" y="39"/>
      <point x="350" y="30"/>
      <point x="321" y="30" type="curve" smooth="yes"/>
      <point x="280" y="30"/>
      <point x="262" y="54"/>
      <point x="262" y="108" type="curve" smooth="yes"/>
      <point x="262" y="313" type="line"/>
      <point x="289" y="350" type="line" smooth="yes"/>
      <point x="371" y="462"/>
      <point x="405" y="533"/>
      <point x="405" y="613" type="curve" smooth="yes"/>
      <point x="405" y="683"/>
      <point x="369" y="713"/>
      <point x="320" y="713" type="curve" smooth="yes"/>
      <point x="257" y="713"/>
      <point x="222" y="664"/>
      <point x="222" y="593" type="curve" smooth="yes"/>
      <point x="222" y="326" type="line"/>
      <point x="135" y="217" type="line"/>
      <point x="161" y="193" type="line"/>
      <point x="233" y="281" type="line"/>
      <point x="222" y="284" type="line"/>
      <point x="222" y="100" type="line" smooth="yes"/>
      <point x="222" y="30"/>
      <point x="258" y="-8"/>
    </contour>
    <contour>
      <point x="262" y="376" type="curve"/>
      <point x="262" y="590" type="line" smooth="yes"/>
      <point x="262" y="641"/>
      <point x="283" y="675"/>
      <point x="321" y="675" type="curve" smooth="yes"/>
      <point x="351" y="675"/>
      <point x="364" y="654"/>
      <point x="364" y="611" type="curve" smooth="yes"/>
      <point x="364" y="549"/>
      <point x="338" y="484"/>
      <point x="280" y="402" type="curve" smooth="yes"/>
      <point x="274" y="393"/>
      <point x="268" y="385"/>
    </contour>
  </outline>
</glyph>
<glyph name="numero" format="2">
  <advance width="1059"/>
  <unicode hex="2116"/>
  <outline>
    <contour>
      <point x="97" y="0" type="line"/>
      <point x="136" y="0" type="line"/>
      <point x="136" y="663" type="line"/>
      <point x="116" y="663" type="line"/>
      <point x="608" y="0" type="line"/>
      <point x="643" y="0" type="line"/>
      <point x="643" y="705" type="line"/>
      <point x="604" y="705" type="line"/>
      <point x="604" y="42" type="line"/>
      <point x="625" y="42" type="line"/>
      <point x="133" y="705" type="line"/>
      <point x="97" y="705" type="line"/>
    </contour>
    <contour>
      <point x="775" y="271" type="line"/>
      <point x="1038" y="271" type="line"/>
      <point x="1038" y="307" type="line"/>
      <point x="775" y="307" type="line"/>
    </contour>
    <contour>
      <point x="906" y="413" type="curve" smooth="yes"/>
      <point x="985" y="413"/>
      <point x="1043" y="472"/>
      <point x="1043" y="563" type="curve" smooth="yes"/>
      <point x="1043" y="654"/>
      <point x="985" y="713"/>
      <point x="906" y="713" type="curve" smooth="yes"/>
      <point x="827" y="713"/>
      <point x="769" y="654"/>
      <point x="769" y="563" type="curve" smooth="yes"/>
      <point x="769" y="472"/>
      <point x="827" y="413"/>
    </contour>
    <contour>
      <point x="906" y="444" type="curve" smooth="yes"/>
      <point x="844" y="444"/>
      <point x="805" y="486"/>
      <point x="805" y="563" type="curve" smooth="yes"/>
      <point x="805" y="640"/>
      <point x="844" y="682"/>
      <point x="906" y="682" type="curve" smooth="yes"/>
      <point x="968" y="682"/>
      <point x="1007" y="640"/>
      <point x="1007" y="563" type="curve" smooth="yes"/>
      <point x="1007" y="486"/>
      <point x="968" y="444"/>
    </contour>
  </outline>
</glyph>
<glyph name="trademark" format="2">
  <advance width="899"/>
  <unicode hex="2122"/>
  <outline>
    <contour>
      <point x="155" y="284" type="line"/>
      <point x="195" y="284" type="line"/>
      <point x="195" y="669" type="line"/>
      <point x="346" y="669" type="line"/>
      <point x="346" y="705" type="line"/>
      <point x="4" y="705" type="line"/>
      <point x="4" y="669" type="line"/>
      <point x="155" y="669" type="line"/>
    </contour>
    <contour>
      <point x="414" y="284" type="line"/>
      <point x="453" y="284" type="line"/>
      <point x="453" y="648" type="line"/>
      <point x="435" y="648" type="line"/>
      <point x="598" y="347" type="line"/>
      <point x="628" y="347" type="line"/>
      <point x="788" y="648" type="line"/>
      <point x="772" y="648" type="line"/>
      <point x="772" y="284" type="line"/>
      <point x="811" y="284" type="line"/>
      <point x="811" y="705" type="line"/>
      <point x="777" y="705" type="line"/>
      <point x="603" y="377" type="line"/>
      <point x="622" y="377" type="line"/>
      <point x="448" y="705" type="line"/>
      <point x="414" y="705" type="line"/>
    </contour>
  </outline>
</glyph>
<glyph name="increment" format="2">
  <advance width="600"/>
  <unicode hex="2206"/>
  <outline>
    <contour>
      <point x="36" y="0" type="line"/>
      <point x="564" y="0" type="line"/>
      <point x="564" y="29" type="line"/>
      <point x="320" y="705" type="line"/>
      <point x="280" y="705" type="line"/>
      <point x="36" y="29" type="line"/>
    </contour>
    <contour>
      <point x="299" y="649" type="line"/>
      <point x="301" y="649" type="line"/>
      <point x="529" y="8" type="line"/>
      <point x="529" y="39" type="line"/>
      <point x="71" y="39" type="line"/>
      <point x="71" y="8" type="line"/>
    </contour>
  </outline>
</glyph>
<glyph name="divisionslash" format="2">
  <advance width="600"/>
  <unicode hex="2215"/>
  <outline>
    <contour>
      <point x="178" y="-52" type="line"/>
      <point x="463" y="744" type="line"/>
      <point x="422" y="744" type="line"/>
      <point x="137" y="-52" type="line"/>
    </contour>
  </outline>
</glyph>
<glyph name="notequal" format="2">
  <advance width="600"/>
  <unicode hex="2260"/>
  <outline>
    <contour>
      <point x="203" y="29" type="line"/>
      <point x="263" y="168" type="line"/>
      <point x="548" y="168" type="line"/>
      <point x="548" y="207" type="line"/>
      <point x="280" y="207" type="line"/>
      <point x="347" y="367" type="line"/>
      <point x="548" y="367" type="line"/>
      <point x="548" y="406" type="line"/>
      <point x="365" y="406" type="line"/>
      <point x="417" y="530" type="line"/>
      <point x="382" y="545" type="line"/>
      <point x="322" y="406" type="line"/>
      <point x="52" y="406" type="line"/>
      <point x="52" y="367" type="line"/>
      <point x="306" y="367" type="line"/>
      <point x="237" y="207" type="line"/>
      <point x="52" y="207" type="line"/>
      <point x="52" y="168" type="line"/>
      <point x="220" y="168" type="line"/>
      <point x="168" y="46" type="line"/>
    </contour>
  </outline>
</glyph>
<glyph name="lessequal" format="2">
  <advance width="600"/>
  <unicode hex="2264"/>
  <outline>
    <contour>
      <point x="548" y="107" type="line"/>
      <point x="548" y="152" type="line"/>
      <point x="90" y="331" type="line"/>
      <point x="90" y="309" type="line"/>
      <point x="548" y="488" type="line"/>
      <point x="548" y="533" type="line"/>
      <point x="53" y="338" type="line"/>
      <point x="53" y="302" type="line"/>
    </contour>
    <contour>
      <point x="52" y="0" type="line"/>
      <point x="548" y="0" type="line"/>
      <point x="548" y="39" type="line"/>
      <point x="52" y="39" type="line"/>
    </contour>
  </outline>
</glyph>
<glyph name="leftanglebracket-math" format="2">
  <advance width="600"/>
  <unicode hex="27E8"/>
  <outline>
    <contour>
      <point x="344" y="0" type="line"/>
      <point x="381" y="0" type="line"/>
      <point x="257" y="352" type="line"/>
      <point x="381" y="705" type="line"/>
      <point x="344" y="705" type="line"/>
      <point x="219" y="352" type="line"/>
    </contour>
  </outline>
</glyph>
<glyph name="__Zedescener-cy.case" format="2">
  <advance width="161"/>
  <anchor x="93" y="0" name="_bottom"/>
  <outline>
    <contour>
      <point x="71" y="-150" type="line"/>
      <point x="115" y="-150" type="line"/>
      <point x="115" y="13" type="line"/>
      <point x="71" y="13" type="line"/>
    </contour>
  </outline>
</glyph>
<glyph name="__descender-cy.case.cy" format="2">
  <advance width="2"/>
  <anchor x="0" y="0" name="_bottomright"/>
  <outline>
    <contour>
      <point x="63" y="-150" type="line"/>
      <point x="104" y="-150" type="line"/>
      <point x="104" y="39" type="line"/>
      <point x="20" y="39" type="line"/>
      <point x="20" y="0" type="line"/>
      <point x="63" y="0" type="line"/>
    </contour>
  </outline>
</glyph>
<glyph name="__descender-cy.case" format="2">
  <advance width="37"/>
  <anchor x="0" y="0" name="_bottomright"/>
  <outline>
    <contour>
      <point x="104" y="-150" type="line"/>
      <point x="145" y="-150" type="line"/>
      <point x="145" y="39" type="line"/>
      <point x="0" y="39" type="line"/>
      <point x="0" y="0" type="line"/>
      <point x="104" y="0" type="line"/>
    </contour>
  </outline>
</glyph>
<glyph name="__tail-cy.case" format="2">
  <advance width="13"/>
  <anchor x="0" y="0" name="_bottomright"/>
  <outline>
    <contour>
      <point x="41" y="-150" type="line"/>
      <point x="79" y="-150" type="line"/>
      <point x="144" y="39" type="line"/>
      <point x="0" y="39" type="line"/>
      <point x="0" y="0" type="line"/>
      <point x="93" y="0" type="line"/>
    </contour>
  </outline>
</glyph>
<glyph name="_part.Qtail" format="2">
  <advance width="775"/>
  <anchor x="387" y="-8" name="_Qtail"/>
  <outline>
    <contour>
      <point x="579" y="-191" type="curve"/>
      <point x="609" y="-158" type="line"/>
      <point x="557" y="-115"/>
      <point x="501" y="-58"/>
      <point x="465" y="12" type="curve"/>
      <point x="419" y="1" type="line"/>
      <point x="458" y="-73"/>
      <point x="525" y="-151"/>
    </contour>
  </outline>
</glyph>
<glyph name="breveinvertedcomb.case" format="2">
  <anchor x="0" y="705" name="_top"/>
  <anchor x="0" y="865" name="top"/>
  <outline>
    <contour>
      <point x="-124" y="760" type="line"/>
      <point x="-118" y="846"/>
      <point x="-71" y="895"/>
      <point x="0" y="895" type="curve" smooth="yes"/>
      <point x="71" y="895"/>
      <point x="118" y="846"/>
      <point x="124" y="760" type="curve"/>
      <point x="157" y="764" type="line"/>
      <point x="148" y="868"/>
      <point x="85" y="931"/>
      <point x="0" y="931" type="curve" smooth="yes"/>
      <point x="-85" y="931"/>
      <point x="-148" y="868"/>
      <point x="-157" y="764" type="curve"/>
    </contour>
  </outline>
</glyph>
<glyph name="dblgravecomb.case" format="2">
  <anchor x="0" y="705" name="_top"/>
  <anchor x="0" y="865" name="top"/>
  <outline>
    <contour>
      <point x="41" y="765" type="line"/>
      <point x="68" y="765" type="line"/>
      <point x="-18" y="935" type="line"/>
      <point x="-70" y="935" type="line"/>
    </contour>
    <contour>
      <point x="-68" y="765" type="line"/>
      <point x="-41" y="765" type="line"/>
      <point x="-126" y="935" type="line"/>
      <point x="-178" y="935" type="line"/>
    </contour>
  </outline>
</glyph>
<glyph name="eight.dnom" format="2">
  <advance width="380"/>
  <outline>
    <contour>
      <point x="190" y="-3" type="curve" smooth="yes"/>
      <point x="285" y="-3"/>
      <point x="345" y="39"/>
      <point x="345" y="112" type="curve" smooth="yes"/>
      <point x="345" y="170"/>
      <point x="303" y="212"/>
      <point x="245" y="221" type="curve"/>
      <point x="245" y="212" type="line"/>
      <point x="302" y="225"/>
      <point x="336" y="266"/>
      <point x="336" y="315" type="curve" smooth="yes"/>
      <point x="336" y="385"/>
      <point x="277" y="427"/>
      <point x="190" y="427" type="curve" smooth="yes"/>
      <point x="103" y="427"/>
      <point x="45" y="385"/>
      <point x="45" y="315" type="curve" smooth="yes"/>
      <point x="45" y="266"/>
      <point x="79" y="225"/>
      <point x="136" y="212" type="curve"/>
      <point x="136" y="221" type="line"/>
      <point x="77" y="212"/>
      <point x="35" y="170"/>
      <point x="35" y="112" type="curve" smooth="yes"/>
      <point x="35" y="39"/>
      <point x="96" y="-3"/>
    </contour>
    <contour>
      <point x="190" y="33" type="curve" smooth="yes"/>
      <point x="118" y="33"/>
      <point x="76" y="63"/>
      <point x="76" y="115" type="curve" smooth="yes"/>
      <point x="76" y="167"/>
      <point x="118" y="197"/>
      <point x="190" y="197" type="curve" smooth="yes"/>
      <point x="262" y="197"/>
      <point x="304" y="167"/>
      <point x="304" y="115" type="curve" smooth="yes"/>
      <point x="304" y="63"/>
      <point x="262" y="33"/>
    </contour>
    <contour>
      <point x="190" y="232" type="curve" smooth="yes"/>
      <point x="126" y="232"/>
      <point x="86" y="264"/>
      <point x="86" y="312" type="curve" smooth="yes"/>
      <point x="86" y="360"/>
      <point x="126" y="391"/>
      <point x="190" y="391" type="curve" smooth="yes"/>
      <point x="255" y="391"/>
      <point x="294" y="360"/>
      <point x="294" y="312" type="curve" smooth="yes"/>
      <point x="294" y="264"/>
      <point x="255" y="232"/>
    </contour>
  </outline>
</glyph>
<glyph name="five.dnom" format="2">
  <advance width="380"/>
  <outline>
    <contour>
      <point x="196" y="-3" type="curve" smooth="yes"/>
      <point x="283" y="-3"/>
      <point x="341" y="46"/>
      <point x="341" y="131" type="curve" smooth="yes"/>
      <point x="341" y="216"/>
      <point x="285" y="265"/>
      <point x="206" y="265" type="curve" smooth="yes"/>
      <point x="159" y="265"/>
      <point x="116" y="245"/>
      <point x="95" y="217" type="curve"/>
      <point x="105" y="217" type="line"/>
      <point x="105" y="386" type="line"/>
      <point x="322" y="386" type="line"/>
      <point x="322" y="423" type="line"/>
      <point x="66" y="423" type="line"/>
      <point x="66" y="181" type="line"/>
      <point x="101" y="181" type="line"/>
      <point x="125" y="212"/>
      <point x="160" y="228"/>
      <point x="204" y="228" type="curve" smooth="yes"/>
      <point x="264" y="228"/>
      <point x="299" y="195"/>
      <point x="299" y="131" type="curve" smooth="yes"/>
      <point x="299" y="68"/>
      <point x="259" y="34"/>
      <point x="196" y="34" type="curve" smooth="yes"/>
      <point x="148" y="34"/>
      <point x="102" y="53"/>
      <point x="72" y="85" type="curve"/>
      <point x="49" y="55" type="line"/>
      <point x="82" y="19"/>
      <point x="136" y="-3"/>
    </contour>
  </outline>
</glyph>
<glyph name="five.tosf" format="2">
  <advance width="600"/>
  <outline>
    <contour>
      <point x="309" y="-188" type="curve" smooth="yes"/>
      <point x="451" y="-188"/>
      <point x="538" y="-102"/>
      <point x="538" y="25" type="curve" smooth="yes"/>
      <point x="538" y="155"/>
      <point x="455" y="240"/>
      <point x="322" y="240" type="curve" smooth="yes"/>
      <point x="241" y="240"/>
      <point x="171" y="204"/>
      <point x="136" y="144" type="curve"/>
      <point x="153" y="144" type="line"/>
      <point x="153" y="463" type="line"/>
      <point x="507" y="463" type="line"/>
      <point x="507" y="500" type="line"/>
      <point x="111" y="500" type="line"/>
      <point x="111" y="105" type="line"/>
      <point x="145" y="105" type="line"/>
      <point x="186" y="171"/>
      <point x="246" y="201"/>
      <point x="321" y="201" type="curve" smooth="yes"/>
      <point x="428" y="201"/>
      <point x="495" y="130"/>
      <point x="495" y="22" type="curve" smooth="yes"/>
      <point x="495" y="-82"/>
      <point x="427" y="-149"/>
      <point x="310" y="-149" type="curve" smooth="yes"/>
      <point x="240" y="-149"/>
      <point x="160" y="-125"/>
      <point x="100" y="-69" type="curve"/>
      <point x="79" y="-102" type="line"/>
      <point x="133" y="-158"/>
      <point x="220" y="-188"/>
    </contour>
  </outline>
</glyph>
<glyph name="four.dnom" format="2">
  <advance width="380"/>
  <outline>
    <contour>
      <point x="249" y="0" type="line"/>
      <point x="288" y="0" type="line"/>
      <point x="288" y="94" type="line"/>
      <point x="357" y="94" type="line"/>
      <point x="357" y="131" type="line"/>
      <point x="288" y="131" type="line"/>
      <point x="288" y="423" type="line"/>
      <point x="255" y="423" type="line"/>
      <point x="43" y="127" type="line"/>
      <point x="43" y="94" type="line"/>
      <point x="249" y="94" type="line"/>
    </contour>
    <contour>
      <point x="249" y="131" type="line"/>
      <point x="76" y="131" type="line"/>
      <point x="76" y="116" type="line"/>
      <point x="259" y="369" type="line"/>
      <point x="249" y="369" type="line"/>
    </contour>
  </outline>
</glyph>
<glyph name="four.tosf" format="2">
  <advance width="600"/>
  <outline>
    <contour>
      <point x="401" y="-180" type="line"/>
      <point x="443" y="-180" type="line"/>
      <point x="443" y="0" type="line"/>
      <point x="549" y="0" type="line"/>
      <point x="549" y="37" type="line"/>
      <point x="443" y="37" type="line"/>
      <point x="443" y="500" type="line"/>
      <point x="408" y="500" type="line"/>
      <point x="57" y="33" type="line"/>
      <point x="57" y="0" type="line"/>
      <point x="401" y="0" type="line"/>
    </contour>
    <contour>
      <point x="401" y="37" type="line"/>
      <point x="101" y="37" type="line"/>
      <point x="101" y="27" type="line"/>
      <point x="414" y="443" type="line"/>
      <point x="401" y="443" type="line"/>
    </contour>
  </outline>
</glyph>
<glyph name="hookabovecomb.case" format="2">
  <anchor x="0" y="705" name="_top"/>
  <anchor x="0" y="865" name="top"/>
  <outline>
    <contour>
      <point x="-19" y="765" type="line"/>
      <point x="19" y="765" type="line"/>
      <point x="19" y="775" type="line" smooth="yes"/>
      <point x="19" y="827"/>
      <point x="91" y="823"/>
      <point x="91" y="880" type="curve" smooth="yes"/>
      <point x="91" y="916"/>
      <point x="58" y="940"/>
      <point x="2" y="940" type="curve" smooth="yes"/>
      <point x="-28" y="940"/>
      <point x="-55" y="933"/>
      <point x="-76" y="921" type="curve"/>
      <point x="-67" y="888" type="line"/>
      <point x="-42" y="900"/>
      <point x="-22" y="904"/>
      <point x="-2" y="904" type="curve" smooth="yes"/>
      <point x="34" y="904"/>
      <point x="50" y="894"/>
      <point x="50" y="878" type="curve" smooth="yes"/>
      <point x="50" y="844"/>
      <point x="-19" y="837"/>
      <point x="-19" y="779" type="curve" smooth="yes"/>
    </contour>
  </outline>
</glyph>
<glyph name="horncomb.O.case" format="2">
  <anchor x="0" y="705" name="_topright"/>
  <outline>
    <contour>
      <point x="35" y="667" type="line"/>
      <point x="91" y="667" type="line" smooth="yes"/>
      <point x="183" y="667"/>
      <point x="235" y="723"/>
      <point x="235" y="817" type="curve" smooth="yes"/>
      <point x="235" y="837" type="line"/>
      <point x="195" y="837" type="line"/>
      <point x="195" y="825" type="line" smooth="yes"/>
      <point x="195" y="747"/>
      <point x="172" y="705"/>
      <point x="75" y="705" type="curve" smooth="yes"/>
      <point x="46" y="705"/>
      <point x="20" y="706"/>
      <point x="-19" y="709" type="curve"/>
    </contour>
  </outline>
</glyph>
<glyph name="nine.dnom" format="2">
  <advance width="380"/>
  <outline>
    <contour>
      <point x="166" y="-3" type="curve" smooth="yes"/>
      <point x="275" y="-3"/>
      <point x="339" y="80"/>
      <point x="339" y="223" type="curve" smooth="yes"/>
      <point x="339" y="353"/>
      <point x="281" y="427"/>
      <point x="179" y="427" type="curve" smooth="yes"/>
      <point x="96" y="427"/>
      <point x="37" y="370"/>
      <point x="37" y="292" type="curve" smooth="yes"/>
      <point x="37" y="213"/>
      <point x="93" y="159"/>
      <point x="174" y="159" type="curve" smooth="yes"/>
      <point x="241" y="159"/>
      <point x="294" y="199"/>
      <point x="305" y="257" type="curve"/>
      <point x="298" y="257" type="line"/>
      <point x="298" y="219" type="line" smooth="yes"/>
      <point x="298" y="101"/>
      <point x="250" y="33"/>
      <point x="166" y="33" type="curve" smooth="yes"/>
      <point x="126" y="33"/>
      <point x="87" y="51"/>
      <point x="58" y="81" type="curve"/>
      <point x="37" y="51" type="line"/>
      <point x="66" y="18"/>
      <point x="114" y="-3"/>
    </contour>
    <contour>
      <point x="179" y="195" type="curve" smooth="yes"/>
      <point x="119" y="195"/>
      <point x="78" y="231"/>
      <point x="78" y="292" type="curve" smooth="yes"/>
      <point x="78" y="353"/>
      <point x="119" y="391"/>
      <point x="179" y="391" type="curve" smooth="yes"/>
      <point x="239" y="391"/>
      <point x="281" y="355"/>
      <point x="281" y="293" type="curve" smooth="yes"/>
      <point x="281" y="231"/>
      <point x="239" y="195"/>
    </contour>
  </outline>
</glyph>
<glyph name="one.dnom" format="2">
  <advance width="380"/>
  <outline>
    <contour>
      <point x="100" y="0" type="line"/>
      <point x="321" y="0" type="line"/>
      <point x="321" y="37" type="line"/>
      <point x="235" y="37" type="line"/>
      <point x="235" y="423" type="line"/>
      <point x="202" y="423" type="line"/>
      <point x="107" y="360" type="line"/>
      <point x="107" y="316" type="line"/>
      <point x="217" y="388" type="line"/>
      <point x="196" y="388" type="line"/>
      <point x="196" y="37" type="line"/>
      <point x="100" y="37" type="line"/>
    </contour>
  </outline>
</glyph>
<glyph name="periodcentered.loclCAT" format="2">
  <advance width="303"/>
  <anchor x="151" y="361" name="_dot"/>
  <outline>
    <contour>
      <point x="117" y="327" type="line"/>
      <point x="186" y="327" type="line"/>
      <point x="186" y="395" type="line"/>
      <point x="117" y="395" type="line"/>
    </contour>
  </outline>
</glyph>
<glyph name="ringcomb_acutecomb" format="2">
  <anchor x="0" y="484" name="_top"/>
  <outline>
    <contour>
      <point x="0" y="547" type="curve" smooth="yes"/>
      <point x="63" y="547"/>
      <point x="112" y="596"/>
      <point x="112" y="657" type="curve" smooth="yes"/>
      <point x="112" y="681"/>
      <point x="105" y="703"/>
      <point x="92" y="721" type="curve"/>
      <point x="205" y="816" type="line"/>
      <point x="144" y="816" type="line"/>
      <point x="68" y="745" type="line"/>
      <point x="49" y="759"/>
      <point x="26" y="767"/>
      <point x="0" y="767" type="curve" smooth="yes"/>
      <point x="-63" y="767"/>
      <point x="-112" y="718"/>
      <point x="-112" y="657" type="curve" smooth="yes"/>
      <point x="-112" y="596"/>
      <point x="-63" y="547"/>
    </contour>
    <contour>
      <point x="0" y="579" type="curve" smooth="yes"/>
      <point x="-46" y="579"/>
      <point x="-78" y="613"/>
      <point x="-78" y="657" type="curve" smooth="yes"/>
      <point x="-78" y="701"/>
      <point x="-46" y="735"/>
      <point x="0" y="735" type="curve" smooth="yes"/>
      <point x="46" y="735"/>
      <point x="78" y="701"/>
      <point x="78" y="657" type="curve" smooth="yes"/>
      <point x="78" y="613"/>
      <point x="46" y="579"/>
    </contour>
  </outline>
</glyph>
<glyph name="ringhalfright.case" format="2">
  <advance width="500"/>
  <anchor x="250" y="705" name="_top"/>
  <anchor x="250" y="865" name="top"/>
  <outline>
    <contour>
      <point x="250" y="760" type="line"/>
      <point x="306" y="760"/>
      <point x="347" y="801"/>
      <point x="347" y="854" type="curve" smooth="yes"/>
      <point x="347" y="907"/>
      <point x="306" y="949"/>
      <point x="250" y="949" type="curve"/>
      <point x="250" y="913" type="line"/>
      <point x="284" y="913"/>
      <point x="307" y="887"/>
      <point x="307" y="854" type="curve" smooth="yes"/>
      <point x="307" y="822"/>
      <point x="284" y="795"/>
      <point x="250" y="795" type="curve"/>
    </contour>
  </outline>
</glyph>
<glyph name="six.dnom" format="2">
  <advance width="380"/>
  <outline>
    <contour>
      <point x="200" y="-3" type="curve" smooth="yes"/>
      <point x="283" y="-3"/>
      <point x="342" y="54"/>
      <point x="342" y="132" type="curve" smooth="yes"/>
      <point x="342" y="211"/>
      <point x="287" y="265"/>
      <point x="206" y="265" type="curve" smooth="yes"/>
      <point x="138" y="265"/>
      <point x="85" y="225"/>
      <point x="75" y="167" type="curve"/>
      <point x="82" y="167" type="line"/>
      <point x="82" y="205" type="line" smooth="yes"/>
      <point x="82" y="323"/>
      <point x="129" y="391"/>
      <point x="214" y="391" type="curve" smooth="yes"/>
      <point x="254" y="391"/>
      <point x="293" y="373"/>
      <point x="321" y="343" type="curve"/>
      <point x="343" y="373" type="line"/>
      <point x="314" y="406"/>
      <point x="266" y="427"/>
      <point x="214" y="427" type="curve" smooth="yes"/>
      <point x="105" y="427"/>
      <point x="41" y="344"/>
      <point x="41" y="201" type="curve" smooth="yes"/>
      <point x="41" y="71"/>
      <point x="99" y="-3"/>
    </contour>
    <contour>
      <point x="200" y="33" type="curve" smooth="yes"/>
      <point x="141" y="33"/>
      <point x="98" y="69"/>
      <point x="98" y="131" type="curve" smooth="yes"/>
      <point x="98" y="193"/>
      <point x="141" y="229"/>
      <point x="200" y="229" type="curve" smooth="yes"/>
      <point x="260" y="229"/>
      <point x="301" y="193"/>
      <point x="301" y="132" type="curve" smooth="yes"/>
      <point x="301" y="71"/>
      <point x="260" y="33"/>
    </contour>
  </outline>
</glyph>
<glyph name="slashlongcomb.case" format="2">
  <anchor x="0" y="353" name="_center"/>
  <outline>
    <contour>
      <point x="-205" y="-35" type="line"/>
      <point x="-159" y="43" type="line"/>
      <point x="-146" y="65" type="line"/>
      <point x="178" y="621" type="line"/>
      <point x="191" y="643" type="line"/>
      <point x="237" y="722" type="line"/>
      <point x="204" y="740" type="line"/>
      <point x="158" y="662" type="line"/>
      <point x="145" y="640" type="line"/>
      <point x="-179" y="84" type="line"/>
      <point x="-192" y="62" type="line"/>
      <point x="-238" y="-17" type="line"/>
    </contour>
  </outline>
</glyph>
<glyph name="strokecomb.obarred" format="2">
  <advance width="58"/>
  <anchor x="45" y="255" name="_center"/>
  <outline>
    <contour>
      <point x="-158" y="237" type="line"/>
      <point x="247" y="237" type="line"/>
      <point x="247" y="273" type="line"/>
      <point x="-158" y="273" type="line"/>
    </contour>
  </outline>
</glyph>
<glyph name="tildecomb.case.O" format="2">
  <anchor x="0" y="705" name="_top"/>
  <anchor x="0" y="865" name="top"/>
  <outline>
    <contour>
      <point x="-154" y="792" type="line"/>
      <point x="-145" y="848"/>
      <point x="-122" y="879"/>
      <point x="-82" y="879" type="curve" smooth="yes"/>
      <point x="-63" y="879"/>
      <point x="-43" y="868"/>
      <point x="-12" y="840" type="curve" smooth="yes"/>
      <point x="20" y="812"/>
      <point x="46" y="794"/>
      <point x="80" y="794" type="curve" smooth="yes"/>
      <point x="138" y="794"/>
      <point x="177" y="838"/>
      <point x="186" y="915" type="curve"/>
      <point x="154" y="917" type="line"/>
      <point x="145" y="861"/>
      <point x="122" y="830"/>
      <point x="82" y="830" type="curve" smooth="yes"/>
      <point x="61" y="830"/>
      <point x="43" y="842"/>
      <point x="12" y="869" type="curve" smooth="yes"/>
      <point x="-22" y="900"/>
      <point x="-48" y="915"/>
      <point x="-79" y="915" type="curve" smooth="yes"/>
      <point x="-138" y="915"/>
      <point x="-177" y="871"/>
      <point x="-186" y="794" type="curve"/>
    </contour>
  </outline>
</glyph>
<glyph name="two.dnom" format="2">
  <advance width="380"/>
  <outline>
    <contour>
      <point x="57" y="0" type="line"/>
      <point x="336" y="0" type="line"/>
      <point x="336" y="37" type="line"/>
      <point x="103" y="37" type="line"/>
      <point x="103" y="27" type="line"/>
      <point x="246" y="174" type="line" smooth="yes"/>
      <point x="293" y="223"/>
      <point x="315" y="267"/>
      <point x="315" y="313" type="curve" smooth="yes"/>
      <point x="315" y="383"/>
      <point x="267" y="427"/>
      <point x="189" y="427" type="curve" smooth="yes"/>
      <point x="132" y="427"/>
      <point x="77" y="405"/>
      <point x="41" y="369" type="curve"/>
      <point x="64" y="339" type="line"/>
      <point x="97" y="371"/>
      <point x="144" y="390"/>
      <point x="187" y="390" type="curve" smooth="yes"/>
      <point x="243" y="390"/>
      <point x="273" y="362"/>
      <point x="273" y="312" type="curve" smooth="yes"/>
      <point x="273" y="271"/>
      <point x="255" y="237"/>
      <point x="212" y="190" type="curve" smooth="yes"/>
      <point x="57" y="29" type="line"/>
    </contour>
  </outline>
</glyph>
